<svg width="58" height="58" viewBox="0 0 58 58" fill="#B9C1CE" xmlns="http://www.w3.org/2000/svg">
<circle cx="29" cy="29" r="29" fill="#rgb(196, 145, 88)"/>
<g clip-path="url(#clip0)">
<path d="M24.3472 19.8729C24.7246 19.4956 25.3187 19.4956 25.6961 19.8729C26.0608 20.2376 26.0608 20.8445 25.6961 21.2083L18.8564 28.048H41.4267C41.9528 28.048 42.3846 28.4662 42.3846 28.9924C42.3846 29.5185 41.9528 29.9503 41.4267 29.9503H18.8564L25.6961 36.7773C26.0608 37.1547 26.0608 37.7624 25.6961 38.1262C25.3187 38.5036 24.7246 38.5036 24.3472 38.1262L15.8882 29.6673C15.5236 29.3026 15.5236 28.6957 15.8882 28.3319L24.3472 19.8729Z" fill="white"/>
</g>
<defs>
<clipPath id="clip0">
<rect width="26.7692" height="26.7692" fill="white" transform="translate(15.6155 15.6154)"/>
</clipPath>
</defs>
</svg>
