<svg width="58" height="58" viewBox="0 0 58 58" fill="none" xmlns="http://www.w3.org/2000/svg">
<circle cx="29" cy="29" r="29" transform="rotate(180 29 29)" fill="#B9C1CE"/>
<g clip-path="url(#clip0)">
<path d="M33.6528 38.1271C33.2754 38.5045 32.6813 38.5045 32.3039 38.1271C31.9392 37.7624 31.9392 37.1556 32.3039 36.7918L39.1436 29.952L16.5733 29.952C16.0472 29.952 15.6154 29.5338 15.6154 29.0077C15.6154 28.4815 16.0472 28.0497 16.5733 28.0497L39.1436 28.0497L32.3039 21.2227C31.9392 20.8453 31.9392 20.2376 32.3039 19.8738C32.6813 19.4964 33.2754 19.4964 33.6528 19.8738L42.1118 28.3328C42.4764 28.6974 42.4764 29.3043 42.1118 29.6681L33.6528 38.1271Z" fill="white"/>
</g>
<defs>
<clipPath id="clip0">
<rect width="26.7692" height="26.7692" fill="white" transform="translate(42.3845 42.3846) rotate(180)"/>
</clipPath>
</defs>
</svg>
