<svg width="77" height="77" viewBox="0 0 77 77" fill="none" xmlns="http://www.w3.org/2000/svg"><path d="M17.9667 50.6917C13.7201 50.6917 10.2667 54.1451 10.2667 58.3917C10.2667 62.6383 13.7201 66.0917 17.9667 66.0917C22.2133 66.0917 25.6667 62.6383 25.6667 58.3917C25.6667 54.1451 22.2132 50.6917 17.9667 50.6917ZM17.9667 63.525C15.1356 63.525 12.8334 61.2227 12.8334 58.3917C12.8334 55.5606 15.1358 53.2584 17.9667 53.2584C20.7977 53.2584 23.1 55.5608 23.1 58.3917C23.1 61.2227 20.7977 63.525 17.9667 63.525Z" fill="#186AA5"/><path d="M61.6 50.6917C57.3534 50.6917 53.9 54.1451 53.9 58.3917C53.9 62.6383 57.3534 66.0917 61.6 66.0917C65.8466 66.0917 69.3 62.6383 69.3 58.3917C69.3 54.1451 65.8466 50.6917 61.6 50.6917ZM61.6 63.525C58.7689 63.525 56.4667 61.2227 56.4667 58.3917C56.4667 55.5606 58.7691 53.2584 61.6 53.2584C64.4311 53.2584 66.7333 55.5608 66.7333 58.3917C66.7333 61.2227 64.4311 63.525 61.6 63.525Z" fill="#186AA5"/><path d="M76.7959 43.5808L65.2459 25.6141C65.0098 25.247 64.603 25.025 64.1666 25.025H50.05C49.3403 25.025 48.7667 25.5999 48.7667 26.3083V58.3916C48.7667 59.1013 49.3403 59.6749 50.05 59.6749H55.1833V57.1081H51.3333V27.5917H63.4659L74.4333 44.6523V57.1084H68.0166V59.675H75.7166C76.4263 59.675 76.9999 59.1014 76.9999 58.3917V44.275C77 44.0299 76.9295 43.7873 76.7959 43.5808Z" fill="#186AA5"/><path d="M56.4667 41.7083V32.725H66.7334V30.1583H55.1834C54.4737 30.1583 53.9001 30.7332 53.9001 31.4416V42.9916C53.9001 43.7013 54.4737 44.2749 55.1834 44.2749H74.4334V41.7081H56.4667V41.7083Z" fill="#186AA5"/><path d="M50.05 16.0417H1.28328C0.574943 16.0417 0 16.6167 0 17.325V58.3917C0 59.1014 0.574943 59.675 1.28328 59.675H11.55V57.1083H2.56672V18.6083H48.7667V57.1083H24.3833V59.675H50.05C50.7597 59.675 51.3333 59.1014 51.3333 58.3917V17.325C51.3333 16.6167 50.7597 16.0417 50.05 16.0417Z" fill="#186AA5"/><path d="M8.98333 51.975H1.28333V54.5417H8.98333V51.975Z" fill="#186AA5"/><path d="M48.7668 51.975H26.9501V54.5417H48.7668V51.975Z" fill="#186AA5"/><path d="M75.7165 51.975H70.5833V54.5417H75.7165V51.975Z" fill="#186AA5"/><path d="M50.0499 21.175H5.13318V23.7417H50.0499V21.175Z" fill="#186AA5"/><path d="M19.2501 57.1083H16.6833V59.675H19.2501V57.1083Z" fill="#186AA5"/><path d="M62.8834 57.1083H60.3167V59.675H62.8834V57.1083Z" fill="#186AA5"/><path d="M23.0999 10.9083H5.13318V13.475H23.0999V10.9083Z" fill="#186AA5"/><path d="M2.56672 10.9083H0V13.475H2.56672V10.9083Z" fill="#186AA5"/></svg>
