<svg width="63" height="57" viewBox="0 0 63 57" fill="none" xmlns="http://www.w3.org/2000/svg"><path d="M63.0001 43.8807V22.2628H29.2573V29.6556H31.7247V24.7311H60.5315V40.6974H45.1802V46.1529L48.1333 46.4208H55.989V45.272H48.9453V43.8807H63.0001Z" fill="#2673AA"/><path d="M18.6296 30.1548L7.44214 41.3431L11.153 41.3578L18.637 34.0463L18.6296 30.1548Z" fill="#2673AA"/><path d="M19.8302 28.9548L19.1284 29.6556H27.1592V26.5337H5.36506L5.32366 4.37783L40.7628 4.38152L40.7892 20.3446H43.6558V4.30267H46.186V0.522339H43.6558H2.37056H0V4.30267H2.37056V28.9548H19.8302Z" fill="#2673AA"/><path d="M32.2832 47.3116H31.6132H28.7727V48.3828H35.2797V48.8483H28.7727V49.8145H47.112V47.4819L43.7235 47.3116H32.2832Z" fill="#2673AA"/><path d="M15.1252 56.4777H27.2888V38.2296H15.1252V56.4777ZM21.4627 55.563C21.1399 55.563 20.8772 55.2988 20.8772 54.9748C20.8772 54.6507 21.1399 54.389 21.4627 54.389C21.7879 54.389 22.0494 54.6507 22.0494 54.9748C22.0494 55.2988 21.7879 55.563 21.4627 55.563ZM16.8827 39.9878H25.5293V53.4534H16.8827V39.9878Z" fill="#2673AA"/><path d="M28.7726 44.8264V46.5898H43.7271V31.0609H20.1748V36.9306H21.9392V32.8238H41.9615V44.8264H28.7726Z" fill="#2673AA"/></svg>
