<svg width="56" height="56" viewBox="0 0 56 56" fill="none" xmlns="http://www.w3.org/2000/svg"><path d="M41.4408 53.9538H39.5869V55.8076H41.4408V53.9538Z" fill="#2673AA"/><path d="M34.8437 39.6137L33.2114 40.4926L39.7 52.5431L41.3323 51.6642L34.8437 39.6137Z" fill="#2673AA"/><path d="M11.124 26.8015L12.4347 25.4908L7.14472 20.2009V17.2607L11.124 21.2399L12.4347 19.9293L6.87313 14.3677L6.86664 14.3742C6.52356 14.0124 5.95223 13.9971 5.59027 14.3402C5.58042 14.3494 5.57092 14.3589 5.56153 14.3687L0 19.9302L1.31067 21.2409L5.29087 17.2607V20.2009L0.000926922 25.4908L1.31159 26.8015L5.29087 22.8222V25.7624L0.000926922 31.0523L1.31159 32.363L5.29087 28.3837V31.3239L0.000926922 36.6139L1.31159 37.9245L5.29087 33.9453V55.8077H7.14472V33.9453L11.124 37.9245L12.4347 36.6139L7.14472 31.3239V28.3837L11.124 32.363L12.4347 31.0523L7.14472 25.7624V22.8222L11.124 26.8015Z" fill="#2673AA"/><path d="M54.6893 30.5092L56 29.1985L50.71 23.9086V20.9684L54.6893 24.9477L56 23.637L50.4385 18.0755L50.432 18.0819C50.0889 17.7201 49.5174 17.7048 49.1556 18.0479C49.1458 18.0572 49.1363 18.0667 49.1269 18.0764L43.5653 23.6379L44.876 24.9486L48.8562 20.9684V23.9086L43.5663 29.1985L44.8769 30.5092L48.8562 26.5299V29.4701L43.5663 34.7601L44.8769 36.0707L48.8562 32.0914V40.9769L46.9097 36.8734C46.7572 36.5504 46.4327 36.3438 46.0754 36.3423H34.0255V29.3107L38.0047 33.29L39.3154 31.9793L34.0255 26.6893V23.7491L38.0047 27.7284L39.3154 26.4178L34.0255 21.1278V18.1876L38.0047 22.1669L39.3154 20.8562L34.0255 15.5663V12.6261L38.0047 16.6054L39.3154 15.2947L33.7539 9.73316L33.7474 9.73965C33.4043 9.3778 32.8328 9.36251 32.471 9.70559C32.4612 9.71485 32.4517 9.72436 32.4423 9.73409L26.8807 15.2956L28.1914 16.6063L32.1716 12.6261V15.5663L26.8817 20.8562L28.1923 22.1669L32.1716 18.1876V21.1278L26.8817 26.4178L28.1923 27.7284L32.1716 23.7491V26.6893L26.8817 31.9793L28.1923 33.29L32.1716 29.3107V36.3423H19.1947C18.9332 36.3438 18.6849 36.4572 18.5125 36.6538C18.4577 36.7086 18.4112 36.771 18.3744 36.8391L9.10515 54.4507C8.86762 54.9042 9.0427 55.4644 9.49619 55.7019C9.62863 55.7713 9.77601 55.8076 9.92547 55.8077H37.7331V53.9538H29.0201L20.7297 38.1962H45.4887L52.9532 53.9538H43.2947V55.8077H54.4177C54.9296 55.8057 55.343 55.3892 55.3412 54.8773C55.3407 54.7413 55.3102 54.607 55.252 54.484L50.71 44.8895V32.0914L54.6893 36.0707L56 34.7601L50.71 29.4701V26.5299L54.6893 30.5092ZM18.2678 53.9538H11.4605L18.2678 41.0205V53.9538ZM26.9289 53.9538H20.1216V41.0205L26.9289 53.9538Z" fill="#2673AA"/><path d="M17.8043 0.192322C17.2924 0.192438 16.8775 0.607467 16.8776 1.11948C16.8776 1.36523 16.9753 1.60078 17.149 1.77458C18.1063 2.63488 18.7249 3.80871 18.8935 5.08462C19.0691 6.64949 17.943 8.0605 16.3781 8.23615C16.1667 8.2599 15.9533 8.2599 15.7419 8.23615L15.7447 8.23337C14.4688 8.06479 13.295 7.44618 12.4347 6.4889C12.0726 6.12694 11.4857 6.12706 11.1238 6.48913C10.9501 6.66293 10.8524 6.8986 10.8524 7.14424C10.8524 10.9837 13.9649 14.0962 17.8043 14.0962C21.6438 14.0962 24.7562 10.9837 24.7562 7.14424C24.7562 3.30481 21.6438 0.192322 17.8043 0.192322ZM22.3953 9.3663C21.168 11.9004 18.1189 12.9599 15.5849 11.7326C14.5533 11.233 13.7201 10.4003 13.2199 9.36885C13.9581 9.7665 14.7703 10.0078 15.6058 10.0779C17.0035 10.205 18.3863 9.71077 19.3867 8.72649C20.9523 7.04274 21.2142 4.52603 20.0291 2.55597C22.563 3.78322 23.6224 6.83233 22.3953 9.3663Z" fill="#2673AA"/></svg>
