<svg width="56" height="56" viewBox="0 0 56 56" fill="none" xmlns="http://www.w3.org/2000/svg"><path d="M41.4928 7.45929C41.3575 7.02645 40.8968 6.78518 40.4643 6.9206C40.0315 7.05579 39.7903 7.51632 39.9256 7.94905C39.9383 7.98988 41.1104 11.8408 39.3091 14.34C38.3323 13.9138 36.1631 12.6498 35.6231 9.67964C35.5421 9.23356 35.115 8.93711 34.6684 9.01878C34.2223 9.09989 33.9264 9.52737 34.0075 9.97345C34.8896 14.8252 39.173 16.0544 39.3548 16.1043C39.4268 16.124 39.4998 16.1337 39.5723 16.1337C39.7978 16.1337 40.0171 16.0406 40.1747 15.8705C41.3983 14.549 42.0111 12.6645 41.9468 10.4207C41.9 8.77871 41.5094 7.51227 41.4928 7.45929Z" fill="#2673AA"/><path d="M6.05405 23.3249C5.22932 24.9694 4.85603 26.7939 4.97119 28.6445C4.97776 28.7499 4.98542 28.8563 4.99418 28.9633C5.0939 30.1845 4.82231 31.6334 4.18663 33.2695C4.02243 33.6922 4.23195 34.1679 4.65461 34.3321C4.75236 34.3701 4.85285 34.3881 4.9517 34.3881C5.28055 34.3881 5.591 34.1892 5.71722 33.8642C6.44354 31.9944 6.75082 30.3005 6.63062 28.8293C6.62274 28.7332 6.61584 28.6376 6.61004 28.5428C6.50035 26.7808 6.91601 25.0469 7.81201 23.5286C8.02383 23.1699 7.93319 22.7093 7.60128 22.4574C4.84793 20.3675 3.34668 17.6953 2.57208 15.8218C0.220042 10.1327 3.04608 3.38223 3.63655 2.08678C3.6522 2.05241 3.66282 2.02876 3.6683 2.01585C3.80338 1.7032 4.1678 1.55805 4.48066 1.69368C4.79308 1.82854 4.9378 2.19264 4.80206 2.50802C4.79527 2.52389 4.12467 4.11446 3.73026 6.37816C3.65242 6.8249 3.95149 7.25008 4.39823 7.32791C4.84443 7.40574 5.27015 7.10668 5.34798 6.65993C5.70649 4.60182 6.30725 3.16483 6.31163 3.15432C6.80369 2.01114 6.27441 0.679673 5.13178 0.18619C3.98762 -0.307951 2.65484 0.22111 2.16146 1.36352L2.14231 1.40578C1.7191 2.33429 0.935089 4.25655 0.438978 6.69759C-0.308034 10.3731 -0.10092 13.654 1.05474 16.449C2.18161 19.1748 3.90223 21.5381 6.05405 23.3249Z" fill="#2673AA"/><path d="M55.2618 10.4863C55.2881 10.215 55.3022 9.94225 55.3022 9.66978C55.3022 9.33842 55.1029 9.03936 54.797 8.91193L53.2622 8.27242C53.262 8.27231 53.2618 8.27231 53.2615 8.2722L48.3253 6.21551L46.3693 3.62724C44.6528 1.35599 41.9282 0 39.081 0C36.1811 0 33.5825 1.72807 32.4609 4.40249L28.0441 14.935L13.7355 0.323041C13.4182 -0.00120414 12.8984 -0.00645864 12.5746 0.31089C12.2505 0.62813 12.2451 1.148 12.5624 1.47191L27.3551 16.5781L26.9869 17.4562H15.5793C13.646 17.4562 11.7706 17.9733 10.1227 18.9561C8.14537 17.7087 6.73695 16.0985 5.93301 14.1639C5.39213 12.8618 5.1074 11.3842 5.08682 9.77236C5.08113 9.32255 4.71474 8.96185 4.26613 8.96185C4.26263 8.96185 4.25891 8.96185 4.25541 8.96196C3.80199 8.96776 3.4391 9.33996 3.44501 9.79338C3.46833 11.6155 3.7952 13.2979 4.41676 14.794C5.41752 17.2024 7.2012 19.1662 9.71832 20.6308C9.98882 20.7882 10.3253 20.7781 10.586 20.6047C12.0673 19.6193 13.7939 19.0983 15.5793 19.0983H27.3866L42.881 24.7971V29.0612C42.881 32.4762 40.1027 35.2545 36.6877 35.2545C36.2343 35.2545 35.8667 35.6221 35.8667 36.0755V51.3395C35.8667 51.7929 36.2343 52.1605 36.6877 52.1605C38.0572 52.1605 39.0433 52.6516 39.6184 53.6203C39.768 53.8719 39.8733 54.1277 39.9475 54.3581H34.1472C32.7128 54.3581 31.546 53.1913 31.546 51.7569V35.8139C31.546 35.3604 31.1785 34.9929 30.725 34.9929H17.236C16.9463 34.9929 16.6779 35.1457 16.53 35.3948C13.673 40.2066 6.61161 42.4898 6.541 42.5122C6.19946 42.62 5.96716 42.9369 5.96716 43.2951V51.3393C5.96716 51.7927 6.33476 52.1603 6.78818 52.1603C8.15774 52.1603 9.14383 52.6514 9.71898 53.62C9.86851 53.8717 9.97382 54.1274 10.048 54.3579H4.24785C2.81349 54.3579 1.64667 53.191 1.64667 51.7567V43.0568C1.64667 41.5057 2.13205 40.012 3.05027 38.7368C3.45651 38.1727 3.84994 37.5666 4.21961 36.9352C4.44884 36.544 4.31726 36.041 3.92602 35.8118C3.535 35.5825 3.03177 35.7141 2.80265 36.1054C2.45881 36.6924 2.09384 37.255 1.71782 37.7772C0.597082 39.3335 0.00463867 41.159 0.00463867 43.0567V51.7566C0.00463867 54.0962 1.90819 55.9998 4.24785 55.9998H11.0419C11.5 55.9998 11.8787 55.6074 11.8624 55.1495C11.8608 55.106 11.6664 51.0498 7.60908 50.5652V43.8793C8.35161 43.6077 9.72565 43.0565 11.2792 42.2005V50.231C11.2792 52.5708 13.1828 54.4743 15.5224 54.4743H22.3166C22.7749 54.4743 23.1534 54.082 23.1371 53.624C23.1355 53.5805 22.941 49.5244 18.8838 49.0398V42.3534C20.4513 41.7793 24.8419 39.9565 27.7948 36.6346H29.9037V51.7566C29.9037 54.0962 31.8073 55.9998 34.147 55.9998H40.9411C41.3993 55.9998 41.7779 55.6074 41.7616 55.1495C41.7613 55.1386 41.7485 54.8729 41.665 54.4743H45.9116C46.3699 54.4743 46.7484 54.0819 46.7321 53.624C46.7306 53.5805 46.5362 49.5244 42.4789 49.0398V43.4624C42.4789 43.0088 42.1115 42.6413 41.6579 42.6413C41.2044 42.6413 40.8369 43.0088 40.8369 43.4624V49.8137C40.8369 50.2673 41.2044 50.6347 41.6579 50.6347C43.8514 50.6347 44.6442 51.9233 44.9306 52.8323H41.0525C40.4716 51.8126 39.4181 50.7934 37.5085 50.5652V36.8538C38.7212 36.7269 39.852 36.3215 40.8369 35.7041V40.1785C40.8369 40.6319 41.2044 40.9995 41.6579 40.9995C42.1115 40.9995 42.4789 40.6319 42.4789 40.1785V34.3327C43.7479 32.9398 44.5228 31.0894 44.5228 29.061V17.248H47.6264C49.8938 17.248 52.0238 16.2996 53.4703 14.646C54.5035 13.4648 55.102 12.0774 55.2589 10.5138C55.2599 10.5047 55.2609 10.4955 55.2618 10.4863ZM17.8158 40.9866C17.4742 41.0945 17.242 41.4114 17.242 41.7695V49.8138C17.242 50.2674 17.6095 50.6348 18.063 50.6348C20.2564 50.6348 21.0493 51.9234 21.3357 52.8324H15.5226C14.0883 52.8324 12.9214 51.6655 12.9214 50.2311V41.2118C14.6695 40.0616 16.447 38.5478 17.6919 36.6347H25.4796C22.2237 39.5642 17.8653 40.971 17.8158 40.9866ZM28.6219 17.803L29.4357 15.8623L42.8809 20.9151V23.0475L28.6219 17.803ZM52.2344 13.565C51.0998 14.8621 49.4202 15.606 47.6264 15.606H43.7018C43.2483 15.606 42.8808 15.9735 42.8808 16.4271V19.161L30.0711 14.3469L33.9751 5.03741C34.8402 2.9748 36.8444 1.64203 39.081 1.64203C41.4164 1.64203 43.6513 2.75423 45.0593 4.61738L47.1495 7.38299C47.2373 7.49914 47.3543 7.58978 47.4888 7.64571L52.2245 9.61899C52.4133 10.3451 52.8252 10.9985 53.3993 11.4817C53.1661 12.2469 52.7777 12.9439 52.2344 13.565Z" fill="#2673AA"/></svg>
