<svg width="54" height="54" viewBox="0 0 54 54" fill="none" xmlns="http://www.w3.org/2000/svg"><path d="M26.9999 46.8C33.3731 46.798 39.1529 43.0594 41.768 37.2474C43.6755 33.0233 43.6755 28.1831 41.768 23.9589C38.1003 15.7983 28.5114 12.1561 20.3507 15.8238C12.1901 19.4915 8.5479 29.0805 12.2156 37.2411C14.8313 43.0609 20.6194 46.8032 26.9999 46.8ZM13.8645 24.6951C16.1891 19.5247 21.3311 16.1993 26.9999 16.2C32.6684 16.2041 37.8078 19.5312 40.1318 24.7014C41.8245 28.4539 41.8245 32.7525 40.1318 36.5049C36.8707 43.7585 28.3468 46.9949 21.0933 43.7336C13.8398 40.4725 10.6034 31.9487 13.8645 24.6951Z" fill="#186AA5"/><path d="M46.8 0H7.2C5.70881 0 4.5 1.20881 4.5 2.7V51.3C4.5 52.7912 5.70881 54 7.2 54H46.8C48.2912 54 49.5 52.7912 49.5 51.3V2.7C49.5 1.20881 48.2912 0 46.8 0ZM47.7 51.3C47.7 51.797 47.297 52.2 46.8 52.2H7.2C6.70298 52.2 6.3 51.797 6.3 51.3V50.4H47.7V51.3ZM47.7 48.6H6.3V12.6H47.7V48.6ZM47.7 10.8H6.3V2.7C6.3 2.20298 6.70298 1.8 7.2 1.8H46.8C47.297 1.8 47.7 2.20298 47.7 2.7V10.8Z" fill="#186AA5"/><path d="M26.9999 43.2C27.4067 43.2 27.8099 43.1739 28.2095 43.1352C29.4233 43.0232 30.6137 42.7317 31.742 42.2703C31.832 42.2343 31.922 42.2037 32.012 42.1659C32.102 42.1281 32.21 42.0759 32.309 42.0246C32.4647 41.9526 32.6222 41.8833 32.7752 41.805C38.9625 38.615 41.3923 31.0131 38.2022 24.8257C38.185 24.7923 38.1676 24.7589 38.15 24.7257C36.7043 21.9791 34.2945 19.8636 31.3838 18.7857C31.3298 18.7659 31.2785 18.7425 31.2245 18.7236C30.2518 18.3812 29.2408 18.1595 28.214 18.0639C27.8099 18.0261 27.4067 18 26.9999 18C20.0411 18 14.3999 23.6412 14.3999 30.6C14.3999 37.5588 20.0411 43.2 26.9999 43.2ZM36.9818 26.4996V26.5059C37.0016 26.5545 37.0277 26.6013 37.0475 26.6499C37.0943 26.7696 37.1375 26.8911 37.1762 27.0099C37.2662 27.2682 37.3508 27.5283 37.4219 27.792C37.4591 27.9282 37.4933 28.065 37.5245 28.2024C37.5857 28.4724 37.6334 28.7424 37.673 29.0124C37.6919 29.1375 37.7144 29.2617 37.7279 29.3877C37.8239 30.1897 37.8239 31.0004 37.7279 31.8024C37.7144 31.9275 37.6919 32.0508 37.6739 32.175C37.6334 32.445 37.5839 32.7222 37.5245 32.9913C37.493 33.129 37.4588 33.2613 37.4228 33.3999C37.3508 33.6699 37.268 33.9264 37.1753 34.1856C37.133 34.3053 37.0943 34.4259 37.0475 34.5456C37.0277 34.5942 37.0016 34.641 36.9818 34.6896C34.7202 32.7501 34.4591 29.3444 36.3986 27.0828C36.5778 26.8738 36.7728 26.6788 36.9818 26.4996ZM17.8425 24.8688C19.8176 21.7141 23.278 19.7988 26.9999 19.8C30.7208 19.7954 34.1806 21.7119 36.1502 24.8688C32.9849 27.2643 32.3609 31.772 34.7563 34.9373C35.1547 35.4638 35.6238 35.9328 36.1502 36.3312C32.9849 41.3867 26.3206 42.9191 21.2651 39.7539C16.2096 36.5886 14.6772 29.9243 17.8425 24.8688Z" fill="#186AA5"/><path d="M19.8 30.6C19.8045 26.6254 23.0254 23.4045 27 23.4C27.497 23.4 27.9 22.997 27.9 22.5C27.9 22.003 27.497 21.6 27 21.6C22.0317 21.6054 18.0055 25.6317 18 30.6C18 31.097 18.403 31.5 18.9 31.5C19.397 31.5 19.8 31.097 19.8 30.6Z" fill="#186AA5"/><path d="M37.8001 4.5H34.2C33.703 4.5 33.3 4.90297 33.3 5.4C33.3 5.89702 33.703 6.3 34.2 6.3H37.8001C38.2971 6.3 38.7001 5.89702 38.7001 5.4C38.7001 4.90297 38.2971 4.5 37.8001 4.5Z" fill="#186AA5"/><path d="M37.8001 7.20001H34.2C33.703 7.20001 33.3 7.60299 33.3 8.10001C33.3 8.59704 33.703 9.00001 34.2 9.00001H37.8001C38.2971 9.00001 38.7001 8.59704 38.7001 8.10001C38.7001 7.60299 38.2971 7.20001 37.8001 7.20001Z" fill="#186AA5"/><path d="M20.6999 4.5H17.1C16.6029 4.5 16.2 4.90297 16.2 5.4C16.2 5.89702 16.6029 6.3 17.1 6.3H20.6999C21.197 6.3 21.5999 5.89702 21.5999 5.4C21.5999 4.90297 21.197 4.5 20.6999 4.5Z" fill="#186AA5"/><path d="M20.6999 7.20001H17.1C16.6029 7.20001 16.2 7.60299 16.2 8.10001C16.2 8.59704 16.6029 9.00001 17.1 9.00001H20.6999C21.197 9.00001 21.5999 8.59704 21.5999 8.10001C21.5999 7.60299 21.197 7.20001 20.6999 7.20001Z" fill="#186AA5"/><path d="M45 4.5H41.4C40.903 4.5 40.5 4.90297 40.5 5.4C40.5 5.89702 40.903 6.3 41.4 6.3H45C45.497 6.3 45.9 5.89702 45.9 5.4C45.9 4.90297 45.497 4.5 45 4.5Z" fill="#186AA5"/><path d="M45 7.20001H41.4C40.903 7.20001 40.5 7.60299 40.5 8.10001C40.5 8.59704 40.903 9.00001 41.4 9.00001H45C45.497 9.00001 45.9 8.59704 45.9 8.10001C45.9 7.60299 45.497 7.20001 45 7.20001Z" fill="#186AA5"/><path d="M28.8002 2.69998C26.812 2.69998 25.2002 4.31177 25.2002 6.29998C25.2002 8.28819 26.812 9.89998 28.8002 9.89998C30.7884 9.89998 32.4002 8.28819 32.4002 6.29998C32.4002 4.31177 30.7884 2.69998 28.8002 2.69998ZM28.8002 8.09998C27.806 8.09998 27.0002 7.29414 27.0002 6.29998C27.0002 5.30582 27.806 4.49998 28.8002 4.49998C29.7944 4.49998 30.6002 5.30582 30.6002 6.29998C30.6002 7.29414 29.7944 8.09998 28.8002 8.09998Z" fill="#186AA5"/><path d="M11.7001 2.69998C9.71189 2.69998 8.1001 4.31177 8.1001 6.29998C8.1001 8.28819 9.71189 9.89998 11.7001 9.89998C13.6883 9.89998 15.3001 8.28819 15.3001 6.29998C15.3001 4.31177 13.6883 2.69998 11.7001 2.69998ZM11.7001 8.09998C10.7059 8.09998 9.9001 7.29414 9.9001 6.29998C9.9001 5.30582 10.7059 4.49998 11.7001 4.49998C12.6943 4.49998 13.5001 5.30582 13.5001 6.29998C13.5001 7.29414 12.6943 8.09998 11.7001 8.09998Z" fill="#186AA5"/></svg>
