<svg width="58" height="58" viewBox="0 0 58 58" fill="none" xmlns="http://www.w3.org/2000/svg"><path d="M25.375 29H24.4688C22.9281 29 21.75 30.1781 21.75 31.7188C21.75 33.2594 22.9281 34.4375 24.4688 34.4375C26.0094 34.4375 27.1875 33.2594 27.1875 31.7188V26.2812H32.625V29H31.7188C30.1781 29 29 30.1781 29 31.7188C29 33.2594 30.1781 34.4375 31.7188 34.4375C33.2594 34.4375 34.4375 33.2594 34.4375 31.7188V24.4688H25.375V29ZM25.375 31.7188C25.375 32.2625 25.0125 32.625 24.4688 32.625C23.925 32.625 23.5625 32.2625 23.5625 31.7188C23.5625 31.175 23.925 30.8125 24.4688 30.8125H25.375V31.7188ZM32.625 31.7188C32.625 32.2625 32.2625 32.625 31.7188 32.625C31.175 32.625 30.8125 32.2625 30.8125 31.7188C30.8125 31.175 31.175 30.8125 31.7188 30.8125H32.625V31.7188Z" fill="#2673AA"/><path d="M36.25 9.0625H38.0625V15.4062H36.25V9.0625Z" fill="#2673AA"/><path d="M40.3281 10.7844L39.4218 12.325C41.5968 13.5937 42.3218 16.3125 41.0531 18.4875C39.7843 20.6625 37.0656 21.3875 34.8906 20.1187C32.7156 18.85 31.9906 16.1312 33.2593 13.9562C33.6218 13.2312 34.2562 12.6875 34.8906 12.325L33.9843 10.7844C30.9937 12.5062 29.9062 16.4031 31.6281 19.4844C33.35 22.5656 37.2468 23.5625 40.3281 21.8406C43.4093 20.1187 44.4062 16.2219 42.6843 13.1406C42.05 12.1437 41.325 11.4187 40.3281 10.7844Z" fill="#2673AA"/><path d="M19.0312 16.3125H20.8438V22.6562H19.0312V16.3125Z" fill="#2673AA"/><path d="M19.9374 10.875C22.4749 10.875 24.4687 12.8687 24.4687 15.4062C24.4687 17.0375 23.5624 18.4875 22.2031 19.3031L23.1093 20.8437C26.0999 19.1219 27.1874 15.225 25.4656 12.1437C23.7437 9.06248 19.8468 8.06561 16.7656 9.78748C13.6843 11.5094 12.6874 15.4062 14.4093 18.4875C14.9531 19.4844 15.7687 20.2094 16.7656 20.8437L17.6718 19.3031C15.4968 18.0344 14.7718 15.3156 16.0406 13.1406C16.8562 11.7812 18.3062 10.875 19.9374 10.875Z" fill="#2673AA"/><path d="M19.3032 52.2906C24.7407 57.4562 33.2595 57.4562 38.697 52.2906L37.4282 50.9312C32.7157 55.4625 25.2845 55.4625 20.572 50.9312L19.3032 52.2906Z" fill="#2673AA"/><path d="M22.022 48.6656C25.7376 52.5625 31.8095 52.6531 35.7064 49.0281L36.0688 48.6656L34.8001 47.3969C31.8095 50.5688 26.8251 50.6594 23.6532 47.6688C23.5626 47.5781 23.472 47.4875 23.3813 47.3969L22.022 48.6656Z" fill="#2673AA"/><path d="M33.3501 44.95L31.9907 43.7719C30.8126 45.4031 28.547 45.7656 26.9157 44.5875C26.6438 44.4063 26.372 44.1344 26.1001 43.7719L24.7407 44.95C26.5532 47.3062 29.997 47.7594 32.3532 45.9469C32.7157 45.675 32.9876 45.4031 33.3501 44.95Z" fill="#2673AA"/><path d="M53.65 16.675L52.5625 15.8594V4.53125C52.5625 2.99062 51.3844 1.8125 49.8438 1.8125H8.15625C6.61562 1.8125 5.4375 2.99062 5.4375 4.53125V15.8594L4.35 16.675C2.71875 17.8531 1.8125 19.7563 1.8125 21.75V56.1875H3.625V21.75C3.625 20.3 4.25938 18.9406 5.4375 18.125V28.275C5.4375 29.8156 6.61562 30.9938 8.15625 30.9938C8.88125 30.9938 9.60625 30.7219 10.0594 30.1781L13.5031 26.7344C14.1375 26.1 15.225 26.1 15.8594 26.7344C16.4937 27.3687 16.4937 28.4562 15.8594 29.0906L13.5031 31.4469C12.9594 31.9906 12.6875 32.625 12.6875 33.35V38.0625C12.6875 39.5125 12.0531 40.8719 10.875 41.6875L10.15 42.2312C9.425 42.775 9.0625 43.5906 9.0625 44.4062V56.1875H10.875V44.4062C10.875 44.1344 10.9656 43.8625 11.2375 43.6813L11.9625 43.1375C12.5062 42.775 12.9594 42.2313 13.3219 41.6875H44.5875C44.95 42.2313 45.4031 42.775 45.9469 43.1375L46.6719 43.6813C46.9437 43.8625 47.0344 44.1344 47.0344 44.4062V56.1875H48.8469V44.4062C48.8469 43.5906 48.4844 42.775 47.7594 42.2312L47.125 41.6875C45.9469 40.8719 45.3125 39.5125 45.3125 38.0625V33.35C45.3125 32.625 45.0406 31.9 44.4969 31.4469L42.1406 29.0906C41.5062 28.4562 41.5062 27.3687 42.1406 26.7344C42.775 26.1 43.8625 26.1 44.4969 26.7344L47.9406 30.1781C49.0281 31.2656 50.75 31.2656 51.7469 30.1781C52.2906 29.6344 52.5625 29 52.5625 28.275V18.125C53.7406 18.9406 54.375 20.3 54.375 21.75V56.1875H56.1875V21.75C56.1875 19.7563 55.2812 17.8531 53.65 16.675ZM14.2281 39.875C14.4094 39.3312 14.5 38.6969 14.5 38.0625H43.5C43.5 38.6969 43.5906 39.3312 43.7719 39.875H14.2281ZM43.3187 24.4688C41.4156 24.4688 39.875 26.0094 39.875 27.9125C39.875 28.8187 40.2375 29.725 40.8719 30.3594L43.2281 32.7156C43.4094 32.8969 43.5 33.0781 43.5 33.35V36.25H14.5V33.35C14.5 33.0781 14.5906 32.8969 14.7719 32.7156L17.1281 30.3594C18.4875 29 18.4875 26.825 17.1281 25.4656C15.7687 24.1063 13.5938 24.1063 12.2344 25.4656L10.875 26.825V7.25H47.125V26.825L45.7656 25.4656C45.1312 24.8313 44.225 24.4688 43.3187 24.4688ZM50.75 28.275C50.75 28.8188 50.3875 29.1813 49.8438 29.1813C49.5719 29.1813 49.3906 29.0906 49.2094 28.9094L48.9375 28.6375V5.4375H9.0625V28.6375L8.79062 28.9094C8.42812 29.2719 7.88438 29.2719 7.52188 28.9094C7.34063 28.7281 7.25 28.4563 7.25 28.275V4.53125C7.25 3.9875 7.6125 3.625 8.15625 3.625H49.8438C50.3875 3.625 50.75 3.9875 50.75 4.53125V28.275Z" fill="#2673AA"/></svg>
