<svg width="56" height="56" viewBox="0 0 56 56" fill="none" xmlns="http://www.w3.org/2000/svg"><path d="M28.3448 23.507C27.0199 23.507 25.9419 24.5849 25.9419 25.9099C25.942 27.2348 27.0199 28.3128 28.3448 28.3128C29.6696 28.3128 30.7476 27.2348 30.7476 25.9099C30.7476 24.5849 29.6697 23.507 28.3448 23.507ZM28.3448 26.6721C27.9244 26.6721 27.5825 26.3301 27.5825 25.9097C27.5826 25.4895 27.9245 25.1475 28.3448 25.1475C28.7651 25.1475 29.107 25.4894 29.107 25.9097C29.107 26.3301 28.7651 26.6721 28.3448 26.6721Z" fill="#2673AA"/><path d="M23.3959 17.4559C21.9619 17.4559 20.7953 18.6226 20.7953 20.0567C20.7953 21.4908 21.9619 22.6575 23.3959 22.6575C24.8299 22.6575 25.9965 21.4908 25.9965 20.0567C25.9965 18.6226 24.8299 17.4559 23.3959 17.4559ZM23.3959 21.0169C22.8665 21.0169 22.4359 20.5861 22.4359 20.0567C22.4359 19.5273 22.8665 19.0966 23.3959 19.0966C23.9253 19.0966 24.3559 19.5273 24.3559 20.0567C24.3559 20.5861 23.9252 21.0169 23.3959 21.0169Z" fill="#2673AA"/><path d="M47.9142 46.2225H45.7188C45.2657 46.2225 44.8985 46.5898 44.8985 47.0428C44.8985 47.4959 45.2657 47.8632 45.7188 47.8632H47.6408V48.3459H25.1706V47.8632H33.528C34.2819 47.8632 34.8952 47.2499 34.8952 46.496V40.4044H37.9162V46.496C37.9162 47.2499 38.5295 47.8632 39.2834 47.8632H41.8907C42.3438 47.8632 42.711 47.4959 42.711 47.0428C42.711 46.5898 42.3438 46.2225 41.8907 46.2225H39.5568V40.131C39.5568 39.6462 39.3025 39.2208 38.921 38.9779V26.4688C38.921 26.0157 38.5539 25.6484 38.1007 25.6484C37.6476 25.6484 37.2804 26.0157 37.2804 26.4688V38.7638H35.5309V11.9246H37.2804V22.75C37.2804 23.203 37.6476 23.5703 38.1007 23.5703C38.5539 23.5703 38.921 23.203 38.921 22.75V11.1043V6.24477V1.95048C38.9212 0.875 38.0463 0 36.9708 0H35.8407C34.7652 0 33.8903 0.875 33.8903 1.95048V6.24487V11.1044V38.978C33.509 39.2208 33.2545 39.6464 33.2545 40.1311V46.2226H30.093L30.134 45.5744C31.5595 45.3391 32.6505 44.0985 32.6505 42.6074V36.939C33.0608 36.5877 33.3224 36.067 33.3224 35.4856V35.2533C33.3224 34.198 32.4637 33.3393 31.4083 33.3393H30.2148C30.1088 31.6887 28.7331 30.378 27.0564 30.378C26.8399 30.378 26.6259 30.4 26.4165 30.4431C25.9276 28.9684 24.5324 27.8987 22.9018 27.8987C22.8599 27.8987 22.8179 27.8995 22.776 27.9009C22.1749 27.0704 21.1999 26.5585 20.1544 26.5585C18.9955 26.5585 17.9428 27.1834 17.371 28.1484C17.1851 28.1162 16.9956 28.0999 16.8039 28.0999C15.5645 28.0999 14.4489 28.789 13.8852 29.8597C12.0392 30.2035 10.555 31.5797 10.0275 33.3393H8.63281C7.57745 33.3393 6.71875 34.198 6.71875 35.2533V35.4856C6.71875 36.0736 6.98573 36.6002 7.40442 36.9515C7.39578 36.999 7.39064 37.0478 7.39064 37.0978V42.6071C7.39064 44.0983 8.48166 45.3389 9.90714 45.5742L10.4721 54.5017C10.5251 55.3419 11.2263 56 12.0681 56H47.9142C48.6681 56 49.2814 55.3867 49.2814 54.6328V52.5094V49.7132V47.5898C49.2814 46.8359 48.6681 46.2225 47.9142 46.2225ZM35.5309 1.95048C35.5309 1.78259 35.6727 1.64062 35.8406 1.64062H36.9707C37.1386 1.64062 37.2804 1.78248 37.2804 1.95048V10.2841H35.5309V1.95048ZM31.0098 42.6074C31.0098 43.1452 30.6968 43.6101 30.2442 43.8332L30.6514 37.3998H31.0098V42.6074ZM14.5199 31.4281C14.8471 31.4016 15.127 31.1826 15.2313 30.8714C15.4583 30.195 16.0903 29.7406 16.8039 29.7406C17.0427 29.7406 17.2738 29.7907 17.4907 29.8896C17.7086 29.989 17.9594 29.9879 18.177 29.8868C18.3943 29.7855 18.5565 29.5944 18.6209 29.3634C18.8119 28.678 19.4425 28.1994 20.1544 28.1994C20.7708 28.1994 21.3375 28.561 21.5983 29.1207C21.7576 29.4626 22.129 29.6519 22.5001 29.579C22.6332 29.5529 22.7683 29.5397 22.9018 29.5397C24.0279 29.5397 24.9521 30.456 24.9622 31.5825C24.9648 31.8818 25.1304 32.1559 25.394 32.2977C25.6577 32.4394 25.9774 32.4264 26.2287 32.2635C26.4755 32.1035 26.7616 32.019 27.0563 32.019C27.8277 32.019 28.4656 32.5953 28.566 33.3396H11.7793C12.2757 32.29 13.3032 31.5268 14.5199 31.4281ZM9.03116 42.6074V37.3997H9.38958L9.79678 43.8331C9.34419 43.6101 9.03116 43.1452 9.03116 42.6074ZM11.0335 37.3998H23.6248C24.078 37.3998 24.4452 37.0325 24.4452 36.5795C24.4452 36.1265 24.078 35.7592 23.6248 35.7592H8.63281C8.48461 35.7592 8.35938 35.6339 8.35938 35.4857V35.2534C8.35938 35.1052 8.48461 34.98 8.63281 34.98H31.4082C31.5564 34.98 31.6816 35.1052 31.6816 35.2534V35.4857C31.6816 35.6339 31.5564 35.7592 31.4082 35.7592H27.4532C27 35.7592 26.6329 36.1265 26.6329 36.5795C26.6329 37.0325 27 37.3998 27.4532 37.3998H29.0074L28.5912 43.9745H25.2534C25.0566 43.1272 24.2971 42.4933 23.3907 42.4933H16.6502C15.7438 42.4933 14.9842 43.1272 14.7875 43.9745H11.4497L11.0335 37.3998ZM23.6641 44.4072V44.819C23.6641 44.9672 23.5389 45.0925 23.3907 45.0925H16.6502C16.502 45.0925 16.3768 44.9672 16.3768 44.819V44.4072C16.3768 44.259 16.502 44.1338 16.6502 44.1338H23.3907C23.5389 44.1338 23.6641 44.259 23.6641 44.4072ZM23.53 54.3594H12.1069L12.0534 53.5143H23.53V54.3594ZM23.53 47.5897V49.7131V51.8737H11.9496L11.5536 45.6151H14.9118C15.2148 46.2737 15.8791 46.7331 16.6503 46.7331H23.3908C23.5653 46.7331 23.7337 46.7076 23.8943 46.6636C23.6689 46.9075 23.53 47.2323 23.53 47.5897ZM24.6642 46.2439C24.8595 46.0692 25.0184 45.8558 25.1292 45.6151H28.4874L28.4489 46.2225H24.8972C24.8176 46.2225 24.7401 46.2308 24.6642 46.2439ZM47.6408 54.3594H25.1706V49.9867H47.6408V54.3594Z" fill="#2673AA"/><path d="M24.0956 31.256C23.6292 30.467 22.7709 29.9769 21.8553 29.9767C20.9395 29.9767 20.081 30.467 19.615 31.2562C19.3846 31.6464 19.514 32.1493 19.9042 32.3797C20.0351 32.457 20.1788 32.4938 20.3206 32.4938C20.6012 32.4938 20.8746 32.3497 21.0277 32.0905C21.2027 31.7942 21.5122 31.6174 21.8553 31.6174C22.1986 31.6174 22.5081 31.7943 22.6831 32.0906C22.9137 32.4807 23.4165 32.6102 23.8067 32.3795C24.1967 32.149 24.3261 31.646 24.0956 31.256Z" fill="#2673AA"/><path d="M18.7674 31.7078C18.3908 31.071 17.6978 30.6753 16.9585 30.6752C16.2193 30.6752 15.5263 31.071 15.1497 31.708C14.9193 32.0981 15.0486 32.6011 15.4386 32.8315C15.5696 32.909 15.7133 32.9457 15.8553 32.9457C16.1358 32.9457 16.4092 32.8017 16.5623 32.5427C16.6463 32.4006 16.7944 32.3157 16.9585 32.3157C17.1229 32.3157 17.2711 32.4006 17.3552 32.5427C17.5857 32.9328 18.0891 33.062 18.4787 32.8314C18.8686 32.6009 18.998 32.0978 18.7674 31.7078Z" fill="#2673AA"/></svg>
