<svg width="56" height="56" viewBox="0 0 56 56" fill="none" xmlns="http://www.w3.org/2000/svg"><path d="M29.8861 35.1484H26.6844C25.5202 35.1484 24.5771 34.2054 24.5771 33.0412C24.5771 31.8769 25.5202 30.9339 26.6844 30.9339H32.3193C33.0877 30.9339 33.7164 30.3052 33.7164 29.5368C33.7164 28.7684 33.0877 28.1397 32.3193 28.1397H29.6765V26.1954C29.6765 25.427 29.0478 24.7983 28.2794 24.7983C27.511 24.7983 26.8823 25.427 26.8823 26.1954V28.1397H26.6844C23.9834 28.1397 21.783 30.3401 21.783 33.0412C21.783 35.7422 23.9834 37.9426 26.6844 37.9426H29.8861C31.0503 37.9426 31.9934 38.8857 31.9934 40.0499C31.9934 41.2141 31.0503 42.1572 29.8861 42.1572H24.1464C23.378 42.1572 22.7493 42.7859 22.7493 43.5543C22.7493 44.3227 23.378 44.9514 24.1464 44.9514H26.894V46.9422C26.894 47.7106 27.5227 48.3393 28.2911 48.3393C29.0595 48.3393 29.6882 47.7106 29.6882 46.9422V44.9514H29.921C29.9326 44.9514 29.9443 44.9514 29.9559 44.9514C32.6337 44.9164 34.7875 42.7277 34.7875 40.0499C34.7875 37.3489 32.5871 35.1484 29.8861 35.1484Z" fill="#2673AA"/><path d="M49.2823 31.9817C47.8154 28.6054 45.7896 25.3339 43.2283 22.2719C40.1314 18.5464 37.0462 16.0549 35.4744 14.9023L41.4121 3.88857C41.7031 3.34137 41.61 2.66611 41.1559 2.23534C39.6191 0.733472 37.9892 0 36.173 0C34.5081 0 32.983 0.62869 31.6557 1.18753C30.6079 1.6183 29.6183 2.03742 28.815 2.03742C28.5705 2.03742 28.3609 2.00249 28.1514 1.921C25.3805 0.908108 23.2499 0.279418 21.1892 0.279418C18.5813 0.279418 16.3576 1.32723 14.1805 3.56258C13.7264 4.02827 13.6565 4.76175 14.0175 5.30894L20.4208 14.9838C18.8374 16.1597 15.8104 18.6279 12.7717 22.2719C10.222 25.3339 8.18462 28.6054 6.71767 31.9817C4.87817 36.2312 3.94678 40.6669 3.94678 45.1609C3.94678 51.1335 8.81331 56 14.7859 56H41.2141C47.1867 56 52.0532 51.1335 52.0532 45.1609C52.0532 40.6669 51.1218 36.2312 49.2823 31.9817ZM16.9979 4.72682C18.3484 3.56258 19.6407 3.05031 21.1892 3.05031C22.8424 3.05031 24.7052 3.60915 27.185 4.5289C27.6973 4.71518 28.2445 4.80832 28.8033 4.80832C30.1655 4.80832 31.4694 4.27277 32.7152 3.74886C33.9143 3.24823 35.0553 2.77089 36.1613 2.77089C36.6969 2.77089 37.4536 2.86403 38.4083 3.53929L32.82 13.9243H23.0869L16.9979 4.72682ZM41.2141 53.2058H14.7859C10.3501 53.2058 6.74096 49.5967 6.74096 45.1609C6.74096 37.6981 9.47692 30.6195 14.8557 24.1231C18.2553 20.0133 21.7131 17.4636 22.7609 16.7185H33.2158C34.2753 17.452 37.7214 20.0133 41.121 24.1231C46.5114 30.6195 49.2358 37.6865 49.2358 45.1609C49.259 49.5967 45.6499 53.2058 41.2141 53.2058Z" fill="#2673AA"/></svg>
