<svg width="56" height="56" viewBox="0 0 56 56" fill="none" xmlns="http://www.w3.org/2000/svg"><g clip-path="url(#clip0)"><path d="M55.8972 13.2793C55.7044 12.5625 55.2342 11.9515 54.5908 11.581C53.947 11.2088 53.1815 11.1081 52.4634 11.3008C51.7462 11.494 51.1352 11.9638 50.7647 12.6072L50.2981 13.4191C49.8548 13.1644 49.2884 13.3143 49.0291 13.7554L46.6588 17.7957L45.8469 17.3291C45.6318 17.2047 45.3757 17.171 45.1361 17.2357C44.8959 17.3008 44.6918 17.4585 44.5683 17.6745C44.3154 18.1206 44.4694 18.6874 44.9137 18.9435L45.7257 19.41L37.7937 33.1557L35.8339 38.3911L34.9008 40.1358C34.3544 41.0863 34.4128 42.2678 35.0502 43.1595L32.9506 45.7349L32.3628 44.2608C32.0976 43.6038 31.4838 43.1536 30.778 43.0985C30.0718 43.0429 29.3951 43.3919 29.0311 43.9993L28.6952 44.5684L28.3781 40.8357C28.3052 39.9526 27.6213 39.2427 26.7419 39.1361C25.862 39.0299 25.0291 39.5571 24.7479 40.3974L22.4524 47.2841C22.292 47.7712 22.5544 48.2961 23.0402 48.4601C23.1313 48.5025 23.2292 48.528 23.3295 48.5344C23.7305 48.5357 24.0877 48.2801 24.2162 47.9001L26.5022 41.0134L26.8289 44.8017C26.8963 45.61 27.4773 46.2821 28.2674 46.4653C29.0575 46.6484 29.8749 46.3003 30.2909 45.6045L30.6363 45.035L31.215 46.5004C31.4606 47.1178 32.016 47.5584 32.6735 47.6563C33.331 47.7543 33.9908 47.495 34.4064 46.9761L36.5807 44.2235C36.8213 44.2863 37.0692 44.3178 37.318 44.3169C38.3181 44.3246 39.2468 43.7979 39.7535 42.9353L40.6866 41.377L44.2421 37.0565L52.2579 23.1427L53.0699 23.6093C53.2863 23.7333 53.444 23.9379 53.5082 24.1789C53.5729 24.4181 53.5392 24.6733 53.4152 24.8879L49.6826 31.355C49.5418 31.5673 49.4939 31.8279 49.5504 32.0767C49.6069 32.325 49.7623 32.5396 49.981 32.6704C50.1961 32.7953 50.4521 32.829 50.6918 32.7643C50.9319 32.6991 51.1361 32.5415 51.2596 32.3255L54.9923 25.8584C55.3645 25.2146 55.4652 24.4491 55.272 23.731C55.0788 23.0138 54.6091 22.4028 53.9657 22.0323L53.1537 21.5657L55.4866 17.525C55.7413 17.0817 55.5914 16.5157 55.1508 16.256L55.6174 15.4441C55.9997 14.7902 56.1009 14.0092 55.8972 13.2793ZM52.3791 13.5403C52.5026 13.3244 52.7076 13.1663 52.9487 13.102C53.1883 13.0428 53.4417 13.076 53.6577 13.1954C53.8741 13.3189 54.0317 13.5239 54.0964 13.7645C54.1557 14.0042 54.1224 14.2575 54.003 14.4735L53.5364 15.2855L51.9125 14.3523L52.3791 13.5403ZM39.66 39.595L39.1935 39.3243L37.8124 38.5214L39.1374 34.9756L42.0768 36.6738L39.66 39.595ZM36.8605 42.2915C36.4664 42.0167 36.3452 41.4882 36.5807 41.069L37.0473 40.2575L38.6708 41.1906L38.2042 41.993C38.0735 42.22 37.8538 42.3813 37.5982 42.4382C37.3426 42.4947 37.0751 42.4419 36.8605 42.2915ZM43.1408 35.1437L39.912 33.2773L47.3774 20.3432L50.6062 22.2096L43.1408 35.1437ZM51.5393 20.5952L48.3106 18.7288L50.1769 15.5001L53.4057 17.3664L51.5393 20.5952Z" fill="#2673AA"/><path d="M14.7253 41.8249L11.4223 45.1193L9.44385 43.1408C9.07979 42.779 8.492 42.779 8.12793 43.1408C7.95114 43.3162 7.85181 43.5545 7.85181 43.8033C7.85181 44.0521 7.95114 44.2909 8.12793 44.4658L10.1064 46.4443C10.4563 46.7915 10.9293 46.9861 11.4223 46.9856C11.918 46.9883 12.3951 46.7938 12.7473 46.4443L16.0412 43.1408C16.3584 42.7704 16.3369 42.2186 15.9925 41.8741C15.6475 41.5292 15.0958 41.5078 14.7253 41.8249Z" fill="#2673AA"/><path d="M3.73267 44.3351C3.73267 48.7162 7.28401 52.2671 11.6646 52.2671C16.0453 52.2671 19.5966 48.7162 19.5966 44.3351C19.5966 43.8198 19.1788 43.402 18.6635 43.402C18.1481 43.402 17.7303 43.8198 17.7303 44.3351C17.7303 47.6851 15.0146 50.4008 11.6646 50.4008C8.3147 50.4008 5.59901 47.6851 5.59901 44.3351C5.59901 40.9852 8.3147 38.2695 11.6646 38.2695C12.9778 38.2659 14.2559 38.6919 15.3039 39.4829C15.7163 39.7923 16.3014 39.7085 16.6103 39.2961C16.9197 38.8837 16.8363 38.2991 16.4239 37.9897C14.0204 36.1872 10.8044 35.8974 8.1174 37.2406C5.42997 38.5844 3.73267 41.331 3.73267 44.3351Z" fill="#2673AA"/><path d="M33.5942 7.47472C34.1095 7.47472 34.5273 7.05734 34.5273 6.54154C34.5273 6.0262 34.1095 5.60837 33.5942 5.60837H9.33161C8.81627 5.60837 8.39844 6.0262 8.39844 6.54154V10.2742C8.39844 10.79 8.81627 11.2074 9.33161 11.2074H33.5942C34.1095 11.2074 34.5273 10.79 34.5273 10.2742C34.5273 9.7589 34.1095 9.34107 33.5942 9.34107H10.2648V7.47472H33.5942Z" fill="#2673AA"/><path d="M12.1312 13.0738C11.6158 13.0738 11.198 13.4916 11.198 14.0069C11.198 14.5227 11.6158 14.9401 12.1312 14.9401H30.7947C31.31 14.9401 31.7278 14.5227 31.7278 14.0069C31.7278 13.4916 31.31 13.0738 30.7947 13.0738H12.1312Z" fill="#2673AA"/><path d="M36.3937 19.606H15.8638C15.3485 19.606 14.9307 20.0238 14.9307 20.5392C14.9307 21.055 15.3485 21.4723 15.8638 21.4723H36.3937C36.909 21.4723 37.3269 21.055 37.3269 20.5392C37.3269 20.0238 36.909 19.606 36.3937 19.606Z" fill="#2673AA"/><path d="M27.0621 26.1382C27.0621 25.6229 26.6442 25.205 26.1289 25.205H7.4654C6.95006 25.205 6.53223 25.6229 6.53223 26.1382C6.53223 26.654 6.95006 27.0714 7.4654 27.0714H26.1289C26.6442 27.0714 27.0621 26.654 27.0621 26.1382Z" fill="#2673AA"/><path d="M36.3939 25.205H29.8616C29.3463 25.205 28.9285 25.6229 28.9285 26.1382C28.9285 26.654 29.3463 27.0714 29.8616 27.0714H36.3939C36.9092 27.0714 37.327 26.654 37.327 26.1382C37.327 25.6229 36.9092 25.205 36.3939 25.205Z" fill="#2673AA"/><path d="M16.7971 31.7372C17.3125 31.7372 17.7303 31.3199 17.7303 30.8041C17.7303 30.2887 17.3125 29.8709 16.7971 29.8709H7.4654C6.95006 29.8709 6.53223 30.2887 6.53223 30.8041C6.53223 31.3199 6.95006 31.7372 7.4654 31.7372H16.7971Z" fill="#2673AA"/><path d="M20.5299 31.7372H27.0621C27.5774 31.7372 27.9953 31.3199 27.9953 30.8041C27.9953 30.2887 27.5774 29.8709 27.0621 29.8709H20.5299C20.0145 29.8709 19.5967 30.2887 19.5967 30.8041C19.5967 31.3199 20.0145 31.7372 20.5299 31.7372Z" fill="#2673AA"/><path d="M41.9928 42.9351C41.4775 42.9351 41.0597 43.353 41.0597 43.8683V53.2001C41.0597 53.7159 40.6418 54.1332 40.1265 54.1332H2.79952C2.28418 54.1332 1.86635 53.7159 1.86635 53.2001V2.80865C1.86635 2.29331 2.28418 1.87547 2.79952 1.87547H40.1265C40.6418 1.87547 41.0597 2.29331 41.0597 2.80865V20.3339C41.0597 20.8493 41.4775 21.2671 41.9928 21.2671C42.5082 21.2671 42.926 20.8493 42.926 20.3339V2.80865C42.926 1.26262 41.6725 0.00912476 40.1265 0.00912476H2.79952C1.2535 0.00912476 0 1.26262 0 2.80865V53.2001C0 54.7465 1.2535 55.9996 2.79952 55.9996H40.1265C41.6725 55.9996 42.926 54.7465 42.926 53.2001V43.8683C42.926 43.353 42.5082 42.9351 41.9928 42.9351Z" fill="#2673AA"/></g><defs><clipPath id="clip0"><rect width="56" height="56" fill="white"/></clipPath></defs></svg>
