<svg width="56" height="56" viewBox="0 0 56 56" fill="none" xmlns="http://www.w3.org/2000/svg"><path d="M10.1221 20.2442C15.7034 20.2442 20.2442 15.7034 20.2442 10.1221C20.2442 4.54081 15.7034 0 10.1221 0C4.54081 0 0 4.54081 0 10.1221C0 15.7034 4.54081 20.2442 10.1221 20.2442ZM10.1221 2.1875C14.4972 2.1875 18.0567 5.747 18.0567 10.1221C18.0567 14.4972 14.4972 18.0567 10.1221 18.0567C5.747 18.0567 2.1875 14.4972 2.1875 10.1221C2.1875 5.747 5.747 2.1875 10.1221 2.1875Z" fill="#2673AA"/><path d="M10.9923 12.5263C11.2058 12.739 11.4851 12.8453 11.7645 12.8453C12.0449 12.8453 12.3255 12.7381 12.5392 12.5238C12.9655 12.0959 12.9644 11.4033 12.5366 10.9769L11.2233 9.66787V4.8125C11.2233 4.20853 10.7335 3.71875 10.1295 3.71875C9.52555 3.71875 9.03577 4.20853 9.03577 4.8125V10.1221C9.03577 10.4128 9.15159 10.6916 9.35733 10.8968L10.9923 12.5263Z" fill="#2673AA"/><path d="M54.9062 36.3125H48.1745C47.2492 34.9963 45.8589 34.064 44.273 33.7173L39.4645 32.6658C41.4322 31.3387 42.729 29.0891 42.729 26.5422V23.8715V22.6359V22.3579C42.729 18.2878 39.4178 14.9766 35.3477 14.9766C31.2776 14.9766 27.9664 18.2878 27.9664 22.3579V22.6359V23.8715V26.5422C27.9664 29.0858 29.2598 31.3331 31.2234 32.6609L26.4179 33.7152C26.2126 33.7602 26.0108 33.8155 25.8125 33.8795V24.8281C25.8125 24.2242 25.3227 23.7344 24.7188 23.7344H17.2812C16.6773 23.7344 16.1875 24.2242 16.1875 24.8281C16.1875 25.4321 16.6773 25.9219 17.2812 25.9219H23.625V41.2344H16.1875V35.7656C16.1875 33.9564 14.7155 32.4844 12.9062 32.4844C11.097 32.4844 9.625 33.9564 9.625 35.7656V41.2344H2.1875V25.9219H8.53125C9.13522 25.9219 9.625 25.4321 9.625 24.8281C9.625 24.2242 9.13522 23.7344 8.53125 23.7344H1.09375C0.489781 23.7344 0 24.2242 0 24.8281V42.3281C0 42.9321 0.489781 43.4219 1.09375 43.4219H9.625V45.5H9.51562C7.64597 45.5 6.125 47.021 6.125 48.8906V49.4375H1.09375C0.489781 49.4375 0 49.9273 0 50.5313V54.9063C0 55.5102 0.489781 56 1.09375 56H54.9062C55.5102 56 56 55.5102 56 54.9063V50.5313V46.1563V41.7813V37.4063C56 36.8023 55.5102 36.3125 54.9062 36.3125ZM48.254 49.4375H42V47.25H53.8125V49.4375H48.254ZM53.8125 45.0625H42V42.875H53.8125V45.0625ZM53.8125 40.6875H42V38.5H47.5643C47.5676 38.5 47.5709 38.5007 47.5741 38.5007C47.5775 38.5007 47.581 38.5 47.5844 38.5H53.8125V40.6875ZM30.1538 22.358C30.1538 19.4941 32.4838 17.1642 35.3476 17.1642C38.0746 17.1642 40.3175 19.2767 40.5256 21.9512L37.9831 20.4575C37.5225 20.1868 36.9339 20.2886 36.5908 20.698C35.4832 22.0198 33.8589 22.778 32.1344 22.778H30.1539V22.6362V22.358H30.1538ZM30.1538 24.9654H32.1344C34.1934 24.9654 36.1484 24.1802 37.6255 22.7845L40.5415 24.4976V26.5423C40.5415 29.4061 38.2115 31.736 35.3477 31.736C32.4839 31.736 30.1539 29.406 30.1539 26.5423V24.9654H30.1538ZM37.0611 33.7207L35.3313 38.3466L33.5984 33.7123C34.1595 33.8493 34.7449 33.9235 35.3476 33.9235C35.9376 33.9235 36.5108 33.852 37.0611 33.7207ZM24.7188 43.4219C25.3227 43.4219 25.8125 42.9321 25.8125 42.3281V36.2444C26.1499 36.0665 26.5097 35.9346 26.8866 35.8519L31.6706 34.8024L34.3069 41.8524C34.4667 42.2797 34.875 42.563 35.3313 42.563C35.7876 42.563 36.1959 42.2797 36.3557 41.8522L38.9921 34.8018L43.8058 35.8543C44.2283 35.9467 44.6293 36.1031 44.9982 36.3124H40.9062C40.3023 36.3124 39.8125 36.8022 39.8125 37.4062V41.7812V46.1562V49.4374H23.5352V43.4218H24.7188V43.4219ZM21.3477 43.4219V49.4375H19.6875V48.8906C19.6875 47.021 18.1665 45.5 16.2969 45.5H16.1875V43.4219H21.3477ZM11.8125 35.7656C11.8125 35.1625 12.3032 34.6719 12.9062 34.6719C13.5093 34.6719 14 35.1625 14 35.7656V45.5H11.8125V35.7656ZM8.3125 48.8906C8.3125 48.2273 8.85227 47.6875 9.51562 47.6875H10.7188H15.0938H16.2969C16.9602 47.6875 17.5 48.2273 17.5 48.8906V49.4375H8.3125V48.8906ZM53.8125 53.8125H2.1875V51.625H53.8125V53.8125Z" fill="#2673AA"/><path d="M12.133 24.0548C11.9295 24.2583 11.8125 24.5405 11.8125 24.8281C11.8125 25.1158 11.9294 25.398 12.133 25.6013C12.3364 25.8047 12.6186 25.9219 12.9062 25.9219C13.1939 25.9219 13.4761 25.8048 13.6794 25.6013C13.883 25.398 14 25.1158 14 24.8281C14 24.5405 13.883 24.2583 13.6794 24.0548C13.4761 23.8514 13.1939 23.7344 12.9062 23.7344C12.6186 23.7344 12.3364 23.8513 12.133 24.0548Z" fill="#2673AA"/></svg>
