<svg width="56" height="56" viewBox="0 0 56 56" fill="none" xmlns="http://www.w3.org/2000/svg"><g clip-path="url(#clip0)"><path d="M55.0667 54.1342H51.2757C51.3155 53.8275 51.3334 53.5143 51.3334 53.2009C51.3334 50.5665 49.8174 48.3241 47.6001 47.2856V15.8676C47.6001 15.3076 47.2268 14.9343 46.6668 14.9343H32.6668V0.934273C32.6668 0.374273 32.2935 0.000976587 31.7335 0.000976587H6.53352C5.9733 0.000867212 5.6 0.374164 5.6 0.934164V54.1342H0.933297C0.373297 54.1342 0 54.5075 0 55.0675C0 55.6275 0.373297 56.0009 0.933297 56.0009H6.5333H9.3333H31.7333H50.12H55.0667C55.6267 56.0009 56 55.6276 56 55.0676C56 54.5076 55.6267 54.1342 55.0667 54.1342ZM45.7333 46.7334C45.4287 46.6909 45.1174 46.6675 44.8 46.6675C44.0954 46.6675 43.4043 46.7874 42.7513 47.0118C42.5887 46.795 42.3265 46.6675 42 46.6675C41.44 46.6675 41.0667 47.0408 41.0667 47.6008V47.8868C40.713 48.1416 40.3841 48.4323 40.0856 48.7555C40.0385 48.8054 39.9921 48.8559 39.9467 48.9073C39.1733 47.9406 38.1771 47.2412 37.0508 46.9008C36.889 46.7523 36.666 46.6674 36.4 46.6674C36.296 46.6674 36.1984 46.6804 36.1084 46.705C35.8976 46.6804 35.6836 46.6674 35.4667 46.6674C34.8818 46.6674 34.2231 46.7433 33.6895 46.9599C33.6234 46.9822 33.5578 47.0052 33.4928 47.0298C32.8478 46.5055 32.0935 46.128 31.2985 45.9203C31.2901 45.918 31.2815 45.9164 31.2732 45.9141C31.2038 45.8963 31.1343 45.8793 31.0644 45.8641C31.0077 45.8516 30.9504 45.8408 30.8932 45.8301C30.8684 45.8255 30.8435 45.8206 30.8186 45.8163C30.7585 45.8059 30.6983 45.7967 30.6376 45.7883C30.6105 45.7845 30.5833 45.7811 30.5561 45.7777C30.5004 45.7708 30.4445 45.7644 30.3883 45.7592C30.3473 45.7554 30.3062 45.7525 30.265 45.7496C30.2211 45.7465 30.1772 45.7429 30.1329 45.7408C30.0442 45.7366 29.9555 45.7339 29.8667 45.7339C29.798 45.7339 29.7299 45.7354 29.6621 45.7379C29.6177 45.7394 29.5734 45.7421 29.5291 45.7447C29.5113 45.7458 29.4934 45.7465 29.4757 45.7477C28.6254 45.8042 27.79 46.0441 27.0666 46.4692V16.8009H31.7333H45.7333V46.7334ZM7.4667 1.86757H30.8V14.9343H26.1333C25.5733 14.9343 25.2 15.3076 25.2 15.8676V44.8943C24.723 44.4173 24.1732 44.0138 23.5746 43.698C23.5217 43.6698 23.4684 43.6425 23.4148 43.6158C23.3937 43.6054 23.3728 43.5946 23.3516 43.5844C22.6855 43.2613 21.9606 43.0493 21.2032 42.97C21.1926 42.9689 21.1819 42.9681 21.1712 42.967C21.0832 42.9582 20.9949 42.9513 20.906 42.9462C20.8825 42.9448 20.859 42.9433 20.8354 42.9421C20.7351 42.9374 20.6345 42.9343 20.5333 42.9343C19.1442 42.9343 17.8573 43.3911 16.8 44.1589V43.8677C16.8 43.3077 16.4267 42.9344 15.8667 42.9344C15.3067 42.9344 14.9334 43.3077 14.9334 43.8677V45.7344C14.9334 45.8744 14.9567 46.0027 15.0005 46.1164C14.5422 46.8717 14.2264 47.723 14.0934 48.6278C13.0189 48.7506 12.0364 49.1373 11.2001 49.7153V49.4678C11.2001 48.9078 10.8268 48.5345 10.2668 48.5345C9.70681 48.5345 9.33352 48.9078 9.33352 49.4678V51.3345C9.33352 51.4434 9.34806 51.545 9.37497 51.6384C8.9122 52.3869 8.59731 53.2338 8.46759 54.1344H7.46692V1.86757H7.4667ZM14.5086 50.4202C14.5271 50.4186 14.5458 50.4175 14.5644 50.4161C14.6136 50.4122 14.6628 50.4085 14.7125 50.4062C14.7856 50.4029 14.8593 50.4008 14.9334 50.4008C15.4934 50.4008 15.8667 50.0275 15.8667 49.4675C15.8667 46.8542 17.92 44.8008 20.5334 44.8008C22.8667 44.8008 24.8267 46.4808 25.1067 48.8141C25.1698 49.0665 25.3197 49.2745 25.5246 49.4128C25.5375 49.4218 25.5508 49.4304 25.5642 49.4388C25.5787 49.4477 25.593 49.4566 25.608 49.4647C25.6424 49.4838 25.6783 49.5011 25.7157 49.5161C25.7171 49.5167 25.7184 49.5172 25.7199 49.5179C25.7626 49.5349 25.8073 49.5493 25.8533 49.5608C25.8534 49.5608 25.8534 49.5608 25.8535 49.5609C25.9091 49.5793 25.9722 49.5865 26.0389 49.5844C26.3457 49.5889 26.6311 49.4211 26.7867 49.1878C26.7867 49.1877 26.7868 49.1877 26.7869 49.1876L26.8802 49.0943C27.6269 48.161 28.6535 47.601 29.8669 47.601C30.4971 47.601 31.127 47.7775 31.6924 48.1076C30.5791 49.1544 29.9478 50.5191 29.8744 51.9793C29.8694 52.0747 29.8669 52.171 29.8669 52.2677C29.8669 52.9167 29.9749 53.5387 30.1885 54.1344H10.36C10.7968 52.1248 12.4604 50.6063 14.5086 50.4202ZM32.3918 54.1342C32.0353 53.5311 31.8267 52.8181 31.8267 52.1742C31.8267 51.1421 32.2336 50.2123 32.9329 49.5326C33.0666 49.4087 33.2091 49.2943 33.3596 49.1907C33.5054 49.1918 33.6521 49.1614 33.7867 49.0942C35.84 47.9742 38.2667 49.0009 39.0134 51.0542C39.1067 51.3342 39.3867 51.6142 39.8534 51.6142C39.942 51.6142 40.04 51.5859 40.1384 51.5359C40.3726 51.4975 40.5578 51.3255 40.6934 51.0542C41.0551 50.2856 41.6151 49.672 42.2967 49.2418C42.4438 49.2008 42.5702 49.1282 42.6707 49.0296C43.3117 48.7074 44.0384 48.5342 44.8001 48.5342C47.4134 48.5342 49.4668 50.5875 49.4668 53.2009C49.4668 53.4809 49.4668 53.8542 49.3735 54.1342H32.3918Z" fill="#2673AA"/><path d="M30.8 24.2667C30.24 24.2667 29.8667 24.64 29.8667 25.2V27.0667C29.8667 27.6267 30.24 28 30.8 28C31.36 28 31.7333 27.6267 31.7333 27.0667V25.2C31.7333 24.64 31.36 24.2667 30.8 24.2667Z" fill="#2673AA"/><path d="M30.8 41.0667C30.24 41.0667 29.8667 41.4399 29.8667 41.9999V43.8666C29.8667 44.4267 30.24 44.7999 30.8 44.7999C31.36 44.7999 31.7333 44.4267 31.7333 43.8666V41.9999C31.7333 41.4399 31.36 41.0667 30.8 41.0667Z" fill="#2673AA"/><path d="M30.8 29.8666C30.24 29.8666 29.8667 30.2399 29.8667 30.7999V32.6666C29.8667 33.2266 30.24 33.5999 30.8 33.5999C31.36 33.5999 31.7333 33.2266 31.7333 32.6666V30.7999C31.7333 30.2399 31.36 29.8666 30.8 29.8666Z" fill="#2673AA"/><path d="M30.8 35.4667C30.24 35.4667 29.8667 35.84 29.8667 36.4V38.2667C29.8667 38.8267 30.24 39.2 30.8 39.2C31.36 39.2 31.7333 38.8267 31.7333 38.2667V36.4C31.7333 35.84 31.36 35.4667 30.8 35.4667Z" fill="#2673AA"/><path d="M30.8 18.6667C30.24 18.6667 29.8667 19.04 29.8667 19.6V21.4667C29.8667 22.0267 30.24 22.4 30.8 22.4C31.36 22.4 31.7333 22.0267 31.7333 21.4667V19.6C31.7333 19.04 31.36 18.6667 30.8 18.6667Z" fill="#2673AA"/><path d="M36.3998 28C36.9598 28 37.3331 27.6267 37.3331 27.0667V25.2C37.3331 24.64 36.9598 24.2667 36.3998 24.2667C35.8398 24.2667 35.4666 24.64 35.4666 25.2V27.0667C35.4666 27.6267 35.8398 28 36.3998 28Z" fill="#2673AA"/><path d="M36.3998 22.4C36.9598 22.4 37.3331 22.0267 37.3331 21.4667V19.6C37.3331 19.04 36.9598 18.6667 36.3998 18.6667C35.8398 18.6667 35.4666 19.04 35.4666 19.6V21.4667C35.4666 22.0267 35.8398 22.4 36.3998 22.4Z" fill="#2673AA"/><path d="M36.3998 33.5999C36.9598 33.5999 37.3331 33.2266 37.3331 32.6666V30.7999C37.3331 30.2399 36.9598 29.8666 36.3998 29.8666C35.8398 29.8666 35.4666 30.2399 35.4666 30.7999V32.6666C35.4666 33.2266 35.8398 33.5999 36.3998 33.5999Z" fill="#2673AA"/><path d="M36.3998 39.2C36.9598 39.2 37.3331 38.8267 37.3331 38.2667V36.4C37.3331 35.84 36.9598 35.4667 36.3998 35.4667C35.8398 35.4667 35.4666 35.84 35.4666 36.4V38.2667C35.4666 38.8267 35.8398 39.2 36.3998 39.2Z" fill="#2673AA"/><path d="M36.3998 44.7999C36.9598 44.7999 37.3331 44.4267 37.3331 43.8666V41.9999C37.3331 41.4399 36.9598 41.0667 36.3998 41.0667C35.8398 41.0667 35.4666 41.4399 35.4666 41.9999V43.8666C35.4666 44.4267 35.8398 44.7999 36.3998 44.7999Z" fill="#2673AA"/><path d="M41.9999 33.5999C42.5599 33.5999 42.9332 33.2266 42.9332 32.6666V30.7999C42.9332 30.2399 42.5599 29.8666 41.9999 29.8666C41.4399 29.8666 41.0667 30.2399 41.0667 30.7999V32.6666C41.0667 33.2266 41.4399 33.5999 41.9999 33.5999Z" fill="#2673AA"/><path d="M41.9999 28C42.5599 28 42.9332 27.6267 42.9332 27.0667V25.2C42.9332 24.64 42.5599 24.2667 41.9999 24.2667C41.4399 24.2667 41.0667 24.64 41.0667 25.2V27.0667C41.0667 27.6267 41.4399 28 41.9999 28Z" fill="#2673AA"/><path d="M41.9999 44.7999C42.5599 44.7999 42.9332 44.4267 42.9332 43.8666V41.9999C42.9332 41.4399 42.5599 41.0667 41.9999 41.0667C41.4399 41.0667 41.0667 41.4399 41.0667 41.9999V43.8666C41.0667 44.4267 41.4399 44.7999 41.9999 44.7999Z" fill="#2673AA"/><path d="M41.9999 39.2C42.5599 39.2 42.9332 38.8267 42.9332 38.2667V36.4C42.9332 35.84 42.5599 35.4667 41.9999 35.4667C41.4399 35.4667 41.0667 35.84 41.0667 36.4V38.2667C41.0667 38.8267 41.4399 39.2 41.9999 39.2Z" fill="#2673AA"/><path d="M41.9999 22.4C42.5599 22.4 42.9332 22.0267 42.9332 21.4667V19.6C42.9332 19.04 42.5599 18.6667 41.9999 18.6667C41.4399 18.6667 41.0667 19.04 41.0667 19.6V21.4667C41.0667 22.0267 41.4399 22.4 41.9999 22.4Z" fill="#2673AA"/><path d="M10.2668 35.4666C10.8268 35.4666 11.2001 35.0933 11.2001 34.5333V32.6666C11.2001 32.1066 10.8268 31.7333 10.2668 31.7333C9.70679 31.7333 9.3335 32.1066 9.3335 32.6666V34.5333C9.33339 35.0932 9.70679 35.4666 10.2668 35.4666Z" fill="#2673AA"/><path d="M10.2668 41.0667C10.8268 41.0667 11.2001 40.6934 11.2001 40.1334V38.2667C11.2001 37.7067 10.8268 37.3334 10.2668 37.3334C9.70679 37.3334 9.3335 37.7067 9.3335 38.2667V40.1334C9.33339 40.6933 9.70679 41.0667 10.2668 41.0667Z" fill="#2673AA"/><path d="M10.2668 46.6666C10.8268 46.6666 11.2001 46.2933 11.2001 45.7333V43.8666C11.2001 43.3066 10.8268 42.9333 10.2668 42.9333C9.70679 42.9333 9.3335 43.3066 9.3335 43.8666V45.7333C9.33339 46.2932 9.70679 46.6666 10.2668 46.6666Z" fill="#2673AA"/><path d="M10.2668 7.4667C10.8268 7.4667 11.2001 7.0934 11.2001 6.5334V4.6667C11.2001 4.1067 10.8268 3.7334 10.2668 3.7334C9.70679 3.7334 9.3335 4.1067 9.3335 4.6667V6.5334C9.33339 7.09329 9.70679 7.4667 10.2668 7.4667Z" fill="#2673AA"/><path d="M10.2668 13.0667C10.8268 13.0667 11.2001 12.6934 11.2001 12.1334V10.2667C11.2001 9.70667 10.8268 9.33337 10.2668 9.33337C9.70679 9.33337 9.3335 9.70667 9.3335 10.2667V12.1334C9.33339 12.6933 9.70679 13.0667 10.2668 13.0667Z" fill="#2673AA"/><path d="M10.2668 18.6666C10.8268 18.6666 11.2001 18.2933 11.2001 17.7333V15.8666C11.2001 15.3066 10.8268 14.9333 10.2668 14.9333C9.70679 14.9333 9.3335 15.3066 9.3335 15.8666V17.7333C9.33339 18.2932 9.70679 18.6666 10.2668 18.6666Z" fill="#2673AA"/><path d="M10.2668 24.2667C10.8268 24.2667 11.2001 23.8934 11.2001 23.3334V21.4667C11.2001 20.9067 10.8268 20.5334 10.2668 20.5334C9.70679 20.5334 9.3335 20.9067 9.3335 21.4667V23.3334C9.33339 23.8933 9.70679 24.2667 10.2668 24.2667Z" fill="#2673AA"/><path d="M10.2668 29.8666C10.8268 29.8666 11.2001 29.4934 11.2001 28.9334V27.0667C11.2001 26.5067 10.8268 26.1334 10.2668 26.1334C9.70679 26.1334 9.3335 26.5067 9.3335 27.0667V28.9334C9.33339 29.4932 9.70679 29.8666 10.2668 29.8666Z" fill="#2673AA"/><path d="M15.8666 13.0667C16.4266 13.0667 16.7999 12.6934 16.7999 12.1334V10.2667C16.7999 9.70667 16.4266 9.33337 15.8666 9.33337C15.3066 9.33337 14.9333 9.70667 14.9333 10.2667V12.1334C14.9332 12.6933 15.3066 13.0667 15.8666 13.0667Z" fill="#2673AA"/><path d="M15.8666 7.4667C16.4266 7.4667 16.7999 7.0934 16.7999 6.5334V4.6667C16.7999 4.1067 16.4266 3.7334 15.8666 3.7334C15.3066 3.7334 14.9333 4.1067 14.9333 4.6667V6.5334C14.9332 7.09329 15.3066 7.4667 15.8666 7.4667Z" fill="#2673AA"/><path d="M15.8666 24.2667C16.4266 24.2667 16.7999 23.8934 16.7999 23.3334V21.4667C16.7999 20.9067 16.4266 20.5334 15.8666 20.5334C15.3066 20.5334 14.9333 20.9067 14.9333 21.4667V23.3334C14.9332 23.8933 15.3066 24.2667 15.8666 24.2667Z" fill="#2673AA"/><path d="M15.8666 18.6666C16.4266 18.6666 16.7999 18.2933 16.7999 17.7333V15.8666C16.7999 15.3066 16.4266 14.9333 15.8666 14.9333C15.3066 14.9333 14.9333 15.3066 14.9333 15.8666V17.7333C14.9332 18.2932 15.3066 18.6666 15.8666 18.6666Z" fill="#2673AA"/><path d="M15.8666 29.8666C16.4266 29.8666 16.7999 29.4934 16.7999 28.9334V27.0667C16.7999 26.5067 16.4266 26.1334 15.8666 26.1334C15.3066 26.1334 14.9333 26.5067 14.9333 27.0667V28.9334C14.9332 29.4932 15.3066 29.8666 15.8666 29.8666Z" fill="#2673AA"/><path d="M15.8666 35.4666C16.4266 35.4666 16.7999 35.0933 16.7999 34.5333V32.6666C16.7999 32.1066 16.4266 31.7333 15.8666 31.7333C15.3066 31.7333 14.9333 32.1066 14.9333 32.6666V34.5333C14.9332 35.0932 15.3066 35.4666 15.8666 35.4666Z" fill="#2673AA"/><path d="M15.8666 41.0667C16.4266 41.0667 16.7999 40.6934 16.7999 40.1334V38.2667C16.7999 37.7067 16.4266 37.3334 15.8666 37.3334C15.3066 37.3334 14.9333 37.7067 14.9333 38.2667V40.1334C14.9332 40.6933 15.3066 41.0667 15.8666 41.0667Z" fill="#2673AA"/><path d="M21.4667 18.6666C22.0267 18.6666 22.4 18.2933 22.4 17.7333V15.8666C22.4 15.3066 22.0267 14.9333 21.4667 14.9333C20.9067 14.9333 20.5334 15.3066 20.5334 15.8666V17.7333C20.5333 18.2932 20.9067 18.6666 21.4667 18.6666Z" fill="#2673AA"/><path d="M21.4667 13.0667C22.0267 13.0667 22.4 12.6934 22.4 12.1334V10.2667C22.4 9.70667 22.0267 9.33337 21.4667 9.33337C20.9067 9.33337 20.5334 9.70667 20.5334 10.2667V12.1334C20.5333 12.6933 20.9067 13.0667 21.4667 13.0667Z" fill="#2673AA"/><path d="M21.4667 7.4667C22.0267 7.4667 22.4 7.0934 22.4 6.5334V4.6667C22.4 4.1067 22.0267 3.7334 21.4667 3.7334C20.9067 3.7334 20.5334 4.1067 20.5334 4.6667V6.5334C20.5333 7.09329 20.9067 7.4667 21.4667 7.4667Z" fill="#2673AA"/><path d="M21.4667 41.0667C22.0267 41.0667 22.4 40.6934 22.4 40.1334V38.2667C22.4 37.7067 22.0267 37.3334 21.4667 37.3334C20.9067 37.3334 20.5334 37.7067 20.5334 38.2667V40.1334C20.5333 40.6933 20.9067 41.0667 21.4667 41.0667Z" fill="#2673AA"/><path d="M21.4667 35.4666C22.0267 35.4666 22.4 35.0933 22.4 34.5333V32.6666C22.4 32.1066 22.0267 31.7333 21.4667 31.7333C20.9067 31.7333 20.5334 32.1066 20.5334 32.6666V34.5333C20.5333 35.0932 20.9067 35.4666 21.4667 35.4666Z" fill="#2673AA"/><path d="M21.4667 29.8666C22.0267 29.8666 22.4 29.4934 22.4 28.9334V27.0667C22.4 26.5067 22.0267 26.1334 21.4667 26.1334C20.9067 26.1334 20.5334 26.5067 20.5334 27.0667V28.9334C20.5333 29.4932 20.9067 29.8666 21.4667 29.8666Z" fill="#2673AA"/><path d="M21.4667 24.2667C22.0267 24.2667 22.4 23.8934 22.4 23.3334V21.4667C22.4 20.9067 22.0267 20.5334 21.4667 20.5334C20.9067 20.5334 20.5334 20.9067 20.5334 21.4667V23.3334C20.5333 23.8933 20.9067 24.2667 21.4667 24.2667Z" fill="#2673AA"/><path d="M27.0666 13.0667C27.6266 13.0667 27.9999 12.6934 27.9999 12.1334V10.2667C27.9999 9.70667 27.6266 9.33337 27.0666 9.33337C26.5066 9.33337 26.1333 9.70667 26.1333 10.2667V12.1334C26.1332 12.6933 26.5066 13.0667 27.0666 13.0667Z" fill="#2673AA"/><path d="M27.0666 7.4667C27.6266 7.4667 27.9999 7.0934 27.9999 6.5334V4.6667C27.9999 4.1067 27.6266 3.7334 27.0666 3.7334C26.5066 3.7334 26.1333 4.1067 26.1333 4.6667V6.5334C26.1332 7.09329 26.5066 7.4667 27.0666 7.4667Z" fill="#2673AA"/></g><defs><clipPath id="clip0"><rect width="56" height="56" fill="white"/></clipPath></defs></svg>
