<svg width="56" height="56" viewBox="0 0 56 56" fill="none" xmlns="http://www.w3.org/2000/svg"><g clip-path="url(#clip0)"><path d="M52.8083 42.2869C51.6452 41.4684 50.303 41.0287 48.9472 40.957C43.8371 37.6107 40.4897 35.0991 38.5354 33.1448L32.5321 27.1414L36.1751 23.0636C36.8656 23.4533 37.6071 23.7101 38.3488 23.816C38.9085 23.9093 39.2816 23.9093 39.6549 23.9093C40.4012 23.9093 40.5877 23.9093 41.334 24.5623C40.9609 24.8421 40.7743 25.3086 40.7743 25.7749C40.7743 26.2413 40.9609 26.8011 41.334 27.1742L44.5991 30.4393C45.0655 30.999 45.8118 31.2789 46.5581 31.2789C47.3044 31.2789 48.0506 30.999 48.5171 30.3461L55.1405 23.7227C55.7002 23.2562 55.9801 22.51 55.9801 21.7637C55.9801 21.0173 55.7002 20.3644 55.1405 19.8046L51.8754 16.5396C51.5023 16.1665 51.0358 15.9799 50.5694 15.9799C50.1029 15.9799 49.6365 16.2597 49.2633 16.5396C48.517 15.8866 48.517 15.7 48.517 14.9537C48.517 14.5806 48.517 14.1141 48.3304 13.5544C48.1438 12.2483 47.4908 10.9424 46.4646 9.9162L43.1063 6.55789C41.1473 4.59887 40.2145 3.66604 37.6957 2.54661C32.2851 0.0278701 26.7812 0.494339 18.7585 4.13251C18.2921 4.31912 18.1056 4.69223 18.1988 5.1587C18.2921 5.62517 18.6653 5.90503 19.1316 5.90503H20.3443C24.449 5.90503 26.5945 5.90503 30.326 9.63645C31.9599 11.2704 32.007 13.7756 30.5431 15.6189C30.3458 15.6486 30.1956 15.7372 30.0462 15.8866L25.9023 20.5117L22.7698 17.3793C19.3269 13.9363 16.9052 10.6789 15.0414 7.0518C14.9436 5.21642 14.2071 3.49922 12.8815 2.17361C11.2957 0.587808 9.05681 -0.158521 6.81793 0.0280889C6.53808 0.121339 6.25822 0.307948 6.16497 0.494558C5.97836 0.774417 5.97836 1.14753 6.16497 1.42739L8.77695 6.09175C8.21723 7.30444 6.91118 8.05077 5.60525 7.95752L2.8999 3.47965C2.80665 3.19979 2.43343 3.01318 2.15357 3.01318C1.87371 2.91993 1.59385 3.10643 1.40724 3.38629C-0.831631 6.74461 0.00794738 11.2224 3.36626 13.5545C4.52331 14.3809 5.82684 14.8405 7.14699 14.9348C7.16175 14.941 7.17563 14.9486 7.19094 14.9538C10.8291 16.8196 14.0942 19.2449 17.5457 22.6966L20.9575 26.0308L1.12749 48.1639C0.381166 48.9103 0.00805664 49.9363 0.00805664 50.9625C0.00805664 51.9887 0.381166 52.9215 1.12749 53.6679L2.43354 54.9739C3.17987 55.6269 4.1127 56.0001 5.04553 56.0001C5.97836 56.0001 7.00454 55.627 7.75087 54.8807L27.5583 32.7091L33.3113 38.4622C35.2685 40.4194 37.7844 43.8664 41.138 48.8962C41.2583 50.6915 41.993 52.3678 43.293 53.6679C44.6923 55.0672 46.5581 55.8135 48.5171 55.8135C48.797 55.8135 49.0768 55.8135 49.2634 55.8135C49.5433 55.8135 49.8232 55.6269 50.0098 55.347C50.1964 55.0672 50.1964 54.6941 50.0098 54.4142L47.3044 49.8432C47.9574 48.6305 49.1702 47.8842 50.5695 47.9774L53.1815 52.4552C53.2747 52.735 53.6479 52.9216 53.9278 52.9216C54.3009 52.8284 54.5808 52.735 54.7674 52.4552C57.0061 49.0968 56.0732 44.619 52.8083 42.2869ZM31.5389 8.14402C28.5537 5.25217 26.3148 4.31923 23.7961 4.03937C29.1134 2.36022 33.0315 2.45347 36.9495 4.22598C39.1884 5.15881 39.9347 5.90514 41.8937 7.86416L45.252 11.2225C45.9984 11.9688 46.4647 12.9016 46.5581 13.8345C46.6513 14.3009 46.6513 14.674 46.6513 14.9539C46.6513 15.9801 46.7446 16.7263 47.864 17.8457C48.2371 18.2188 48.7969 18.4055 49.2633 18.4055C49.823 18.4055 50.2895 18.2188 50.5694 17.8457L53.8344 21.1108C54.0211 21.2974 54.1143 21.4839 54.1143 21.7638C54.1143 22.0436 54.0211 22.2302 53.8344 22.4167L47.2111 29.0401C46.838 29.4132 46.2782 29.4132 45.905 29.0401L42.64 25.7751C43.0131 25.4952 43.1997 25.0287 43.1064 24.469C43.1064 24.0025 42.9198 23.4428 42.5467 23.0697C41.4273 21.9503 40.6809 21.857 39.6549 21.857C39.375 21.857 39.0019 21.857 38.5354 21.7638C37.5092 21.6705 36.6697 21.2041 35.9234 20.4577L31.9121 16.4464C33.9643 13.9278 33.7778 10.3829 31.5389 8.14402ZM2.24693 5.90514L4.20595 9.26345C4.39256 9.54331 4.67242 9.72992 4.95228 9.72992H5.41875C7.56437 9.82317 9.52339 8.70373 10.4562 6.83808L10.6428 6.37161C10.8294 6.09175 10.8294 5.81189 10.6428 5.53203L8.59045 1.98711C9.70989 2.17372 10.7361 2.73343 11.5757 3.57301C12.5375 4.61494 13.1533 5.93269 13.1897 7.34817C13.1716 7.41999 13.1615 7.49728 13.1615 7.58441C13.1615 8.01644 13.1093 8.43787 13.0128 8.8441C12.6609 10.1949 11.817 11.3726 10.6427 12.1555C8.77695 13.3682 6.25822 13.3682 4.39256 12.0623C2.43354 10.6628 1.59396 8.14402 2.24693 5.90514ZM18.8519 21.3907C16.0533 18.4988 13.2547 16.2599 10.2695 14.4874C10.736 14.3008 11.2957 14.021 11.762 13.7411C13.1613 12.8083 14.0942 11.5955 14.6539 10.1029C16.4263 13.0881 18.6652 15.8867 21.4638 18.6853L24.6679 21.8895L22.1552 24.6941L18.8519 21.3907ZM6.44483 53.4813C5.6985 54.2276 4.48581 54.3208 3.73948 53.5745L2.43343 52.3618C2.06032 51.9887 1.87371 51.5222 1.87371 51.0558C1.87371 50.4961 2.06032 50.0296 2.52668 49.5632L3.05503 48.9721L4.39245 50.3096C4.57906 50.4962 4.76556 50.5894 5.04542 50.5894C5.32528 50.5894 5.51189 50.4962 5.69839 50.3096C6.0715 49.9364 6.0715 49.3767 5.69839 49.0035L4.28772 47.5928L5.52052 46.2135L7.00444 47.6975C7.19104 47.8841 7.37754 47.9773 7.6574 47.9773C7.93726 47.9773 8.12387 47.8841 8.31037 47.6975C8.68348 47.3244 8.68348 46.7646 8.31037 46.3914L6.75344 44.8344L30.7485 17.9883L34.6666 21.9063L30.8169 26.2134C30.7069 26.26 30.6096 26.3312 30.5127 26.4281L26.7813 30.626C26.6747 30.7326 26.5997 30.8546 26.554 30.9828L6.44483 53.4813ZM28.8347 31.2802L31.3876 28.4226L37.4159 34.4508C39.095 36.2232 41.9869 38.4621 46.1848 41.2607C45.625 41.4473 45.0653 41.7272 44.5056 42.1003C43.3482 42.8236 42.5286 43.828 41.9574 44.9382C41.9489 44.9541 41.9412 44.9703 41.9329 44.9862C41.899 45.053 41.866 45.1201 41.8338 45.1877C41.7878 45.2833 41.7441 45.3801 41.7022 45.4778C41.6736 45.544 41.645 45.6101 41.618 45.6767C41.6142 45.6863 41.6105 45.6959 41.6067 45.7055C41.5773 45.7786 41.5481 45.8516 41.5205 45.9251C40.9906 45.1479 40.4809 44.4145 39.9906 43.7236L41.2407 42.4735C41.6138 42.1004 41.6138 41.5407 41.2407 41.1674C40.8675 40.7943 40.3078 40.7943 39.9346 41.1674L38.8946 42.2074C38.507 41.6814 38.1326 41.1852 37.7714 40.7187L38.6287 39.8614C39.0018 39.4883 39.0018 38.9286 38.6287 38.5553C38.2556 38.1822 37.6958 38.1822 37.3226 38.5553L36.6105 39.2675C35.9249 38.4411 35.2924 37.7379 34.7106 37.156L28.8347 31.2802ZM53.8343 49.9363L51.8753 46.578C51.6887 46.2982 51.4088 46.1116 51.129 46.1116H50.6625C48.5169 45.9249 46.5579 47.1377 45.625 49.0034L45.4384 49.4699C45.2518 49.7497 45.2518 50.0296 45.4384 50.3094L47.4907 53.8544C46.3713 53.6678 45.3451 53.108 44.5055 52.2685C43.562 51.2462 42.9521 49.9585 42.8947 48.5738C42.9106 48.5056 42.9196 48.4323 42.9196 48.3504C42.9196 47.1687 43.2948 46.0622 43.9486 45.125C44.3504 44.566 44.8528 44.0766 45.4383 43.6862C46.3712 43.0332 47.3973 42.7533 48.5168 42.7533C49.6362 42.7533 50.7557 43.1265 51.6885 43.7795C53.6478 45.1787 54.4874 47.6975 53.8343 49.9363Z" fill="#2673AA"/></g><defs><clipPath id="clip0"><rect width="56" height="56" fill="white"/></clipPath></defs></svg>
