<svg width="76" height="76" viewBox="0 0 76 76" fill="none" xmlns="http://www.w3.org/2000/svg"><path d="M20.4042 58.0431C23.5249 58.0431 26.0638 55.5042 26.0638 52.3836C26.0638 49.2629 23.5249 46.724 20.4042 46.724C17.2835 46.724 14.7446 49.2629 14.7446 52.3836C14.7446 55.5042 17.2835 58.0431 20.4042 58.0431ZM20.4042 49.1495C22.1875 49.1495 23.6383 50.6003 23.6383 52.3836C23.6383 54.1668 22.1875 55.6176 20.4042 55.6176C18.621 55.6176 17.1702 54.1668 17.1702 52.3836C17.1702 50.6003 18.6208 49.1495 20.4042 49.1495Z" fill="#186AA5"/><path d="M55.5959 46.724C52.4752 46.724 49.9363 49.2629 49.9363 52.3836C49.9363 55.5042 52.4752 58.0431 55.5959 58.0431C58.7165 58.0431 61.2554 55.5042 61.2554 52.3836C61.2554 49.2629 58.7165 46.724 55.5959 46.724ZM55.5959 55.6176C53.8126 55.6176 52.3618 54.1668 52.3618 52.3836C52.3618 50.6003 53.8126 49.1495 55.5959 49.1495C57.3791 49.1495 58.8299 50.6003 58.8299 52.3836C58.8299 54.1668 57.3793 55.6176 55.5959 55.6176Z" fill="#186AA5"/><path d="M22.234 18.7654H26.0792C26.7491 18.7654 27.2919 18.2224 27.2919 17.5526C27.2919 16.8828 26.7491 16.3398 26.0792 16.3398H22.234C20.5486 16.3398 17.8631 17.5002 16.7076 18.7277L6.99119 29.0516C6.65954 29.4039 6.56931 29.9196 6.76109 30.3638C6.95303 30.808 7.3906 31.0955 7.87441 31.0955H54.8118C55.2261 31.0955 55.6115 30.8841 55.8343 30.5349C56.057 30.1857 56.0862 29.7469 55.9116 29.3714L50.9224 18.6401C50.3864 17.5007 48.557 16.3398 47.2979 16.3398H30.9302C30.2603 16.3398 29.7175 16.8828 29.7175 17.5526L29.7173 28.6699H10.6814L18.4738 20.3902C19.1599 19.6612 21.2334 18.7654 22.234 18.7654ZM32.143 18.7654H47.2945C47.6507 18.782 48.5625 19.3606 48.7254 19.6678L52.9107 28.6699H32.1428L32.143 18.7654Z" fill="#186AA5"/><path d="M76 41.6693C76 37.363 72.6762 32.7516 68.591 31.3899C68.5882 31.389 62.9188 29.4992 62.9188 29.4992C61.9722 29.1837 60.7235 28.0742 60.2987 27.1716L55.3118 16.5745C53.9699 13.7227 50.4498 11.4888 47.2979 11.4888H22.234C19.2201 11.4888 15.2409 13.208 13.1752 15.4029L1.99217 27.2851C0.87497 28.472 0 30.6783 0 32.3082V47.5325C0 50.8762 2.72015 53.5963 6.06383 53.5963H8.33736C8.94779 59.7161 14.1263 64.5112 20.4042 64.5112C26.6821 64.5112 31.8607 59.7161 32.4711 53.5963H39.83C40.4999 53.5963 41.0427 53.0533 41.0427 52.3835C41.0427 51.7138 40.4999 51.1708 39.83 51.1708H32.4711C31.8607 45.051 26.6821 40.2559 20.4042 40.2559C14.1263 40.2559 8.94779 45.051 8.33736 51.1708H6.06383C4.05775 51.1708 2.42553 49.5387 2.42553 47.5325V32.3082C2.42553 31.2905 3.06086 29.6887 3.75828 28.9476L14.9414 17.0652C16.5489 15.3572 19.8886 13.9143 22.234 13.9143H47.2979C49.5103 13.9143 52.1751 15.6054 53.117 17.6073L58.1039 28.2044C58.8188 29.7236 60.5589 31.2695 62.1515 31.8003L66.7597 33.3363C66.6801 33.7957 66.6387 34.2627 66.6387 34.7338C66.6387 38.8148 69.6545 42.2041 73.5745 42.7915V47.5326C73.5745 49.5389 72.2231 51.1709 70.5618 51.1709H67.6626C67.0522 45.0512 61.8737 40.2561 55.5958 40.2561C48.9086 40.2561 43.4681 45.6965 43.4681 52.3837C43.4681 59.0709 48.9086 64.5114 55.5958 64.5114C61.8737 64.5114 67.0522 59.7163 67.6626 53.5965H70.5618C73.5604 53.5965 76 50.8763 76 47.5326V41.6693ZM20.4042 42.6814C25.754 42.6814 30.1063 47.0338 30.1063 52.3835C30.1063 57.7333 25.754 62.0857 20.4042 62.0857C15.0545 62.0857 10.7021 57.7333 10.7021 52.3835C10.7021 47.0338 15.0545 42.6814 20.4042 42.6814ZM55.5958 62.0857C50.246 62.0857 45.8937 57.7333 45.8937 52.3835C45.8937 47.0338 50.246 42.6814 55.5958 42.6814C60.9455 42.6814 65.2979 47.0338 65.2979 52.3835C65.2979 57.7333 60.9455 62.0857 55.5958 62.0857ZM69.0643 34.7338C69.0643 34.5771 69.0707 34.421 69.0832 34.266C71.2112 35.4993 72.9296 37.8832 73.4272 40.292C70.9263 39.6799 69.0643 37.4208 69.0643 34.7338Z" fill="#186AA5"/></svg>
