<svg width="105" height="105" viewBox="0 0 105 105" fill="none" xmlns="http://www.w3.org/2000/svg"><path d="M19.6378 70.6889H19.6212C18.7718 70.6889 18.0916 71.3776 18.0916 72.227C18.0916 73.0764 18.7884 73.7651 19.6378 73.7651C20.4873 73.7651 21.1759 73.0764 21.1759 72.227C21.1759 71.3776 20.4873 70.6889 19.6378 70.6889Z" fill="#186AA5"/><path d="M32.7895 70.6889H32.7731C31.9236 70.6889 31.2432 71.3776 31.2432 72.227C31.2432 73.0764 31.94 73.7651 32.7895 73.7651C33.6389 73.7651 34.3275 73.0764 34.3275 72.227C34.3275 71.3776 33.6389 70.6889 32.7895 70.6889Z" fill="#186AA5"/><path d="M87.0392 70.6889H87.0228C86.1734 70.6889 85.4929 71.3776 85.4929 72.227C85.4929 73.0764 86.1898 73.7651 87.0392 73.7651C87.8886 73.7651 88.5773 73.0764 88.5773 72.227C88.5773 71.3776 87.8886 70.6889 87.0392 70.6889Z" fill="#186AA5"/><path d="M103.587 52.0932L101.519 50.0252L97.3524 37.5265C97.974 37.329 98.4246 36.7476 98.4246 36.0608C98.4246 35.2114 97.7359 34.5227 96.8865 34.5227H81.9853V27.8417C81.9853 26.087 80.5579 24.6597 78.8033 24.6597H3.182C1.42735 24.6597 0 26.0872 0 27.8417V64.0081C0 65.7627 1.42735 67.1901 3.182 67.1901H4.93173V70.5829C4.93173 72.3376 6.35908 73.7649 8.11373 73.7649H11.6556C12.3767 77.5055 15.6733 80.3405 19.6213 80.3405C22.3246 80.3405 24.7218 79.0104 26.1969 76.9715C27.6723 79.0104 30.0694 80.3405 32.7728 80.3405C36.7207 80.3405 40.0176 77.5055 40.7384 73.7649H79.057C79.778 77.5055 83.0746 80.3405 87.0226 80.3405C91.4966 80.3405 95.1363 76.7006 95.1363 72.2268C95.1363 72.1915 95.1341 72.1569 95.1337 72.1218H101.818C103.573 72.1218 105 70.6945 105 68.9398V55.5055C105 54.2166 104.498 53.0048 103.587 52.0932ZM11.6556 70.6889H8.11373C8.05528 70.6889 8.00791 70.6416 8.00791 70.5831V67.1903H13.2671C12.4714 68.1923 11.9069 69.385 11.6556 70.6889ZM19.6213 77.2648C16.8435 77.2648 14.5837 75.0048 14.5837 72.2272C14.5837 69.4601 16.8267 67.2075 19.5899 67.1903H19.6531C22.4163 67.2073 24.6593 69.4599 24.6593 72.2272C24.6591 75.0048 22.3991 77.2648 19.6213 77.2648ZM32.773 77.2648C29.9952 77.2648 27.7352 75.0048 27.7352 72.2272C27.7352 69.4601 29.9782 67.2075 32.7414 67.1903H32.8046C35.5678 67.2073 37.8107 69.4599 37.8107 72.2272C37.8105 75.0048 35.5508 77.2648 32.773 77.2648ZM79.0572 70.6889H40.7386C40.4874 69.385 39.9228 68.1921 39.1269 67.1901H68.9394C69.7888 67.1901 70.4775 66.5014 70.4775 65.652C70.4775 64.8026 69.7888 64.1139 68.9394 64.1139H3.182C3.12355 64.1139 3.07618 64.0665 3.07618 64.0081V27.8417C3.07618 27.7832 3.12355 27.7358 3.182 27.7358H78.8031C78.8615 27.7358 78.9089 27.7832 78.9089 27.8417V64.1141H75.5159C74.6664 64.1141 73.9778 64.8028 73.9778 65.6522C73.9778 66.5016 74.6664 67.1903 75.5159 67.1903H80.6687C79.8728 68.1923 79.3084 69.385 79.0572 70.6889ZM98.5882 50.9618H88.6667C88.6083 50.9618 88.5609 50.9144 88.5609 50.856V44.1743H96.3258L98.5882 50.9618ZM87.0228 77.2648C84.245 77.2648 81.9853 75.0048 81.9853 72.2272C81.9853 69.4601 84.2282 67.2075 86.9914 67.1903H87.023C87.0265 67.1903 87.03 67.1899 87.0337 67.1897C89.8065 67.1954 92.0608 69.4529 92.0608 72.227C92.0604 75.0048 89.8006 77.2648 87.0228 77.2648ZM101.924 68.9402C101.924 68.9987 101.877 69.046 101.818 69.046H94.4862C93.2465 66.1489 90.3683 64.1135 87.0228 64.1135C87.0122 64.1135 87.0019 64.1143 86.9912 64.1143H81.9853V37.7053V37.7045C81.9853 37.6461 82.0326 37.5987 82.0911 37.5987H94.1339L95.3004 41.0981H87.0228C86.1734 41.0981 85.4847 41.7868 85.4847 42.6362V50.856C85.4847 52.6106 86.9121 54.038 88.6667 54.038H101.181L101.412 54.2685C101.742 54.5991 101.924 55.0384 101.924 55.5057V59.1824H100.174C99.3249 59.1824 98.6362 59.871 98.6362 60.7205C98.6362 61.5699 99.3249 62.2586 100.174 62.2586H101.924V68.9402Z" fill="#186AA5"/><path d="M73.8712 57.5383H8.11377C7.26434 57.5383 6.57568 58.2269 6.57568 59.0764C6.57568 59.9258 7.26434 60.6144 8.11377 60.6144H73.8712C74.7206 60.6144 75.4093 59.9258 75.4093 59.0764C75.4093 58.2269 74.7206 57.5383 73.8712 57.5383Z" fill="#186AA5"/></svg>
