<svg width="75" height="75" viewBox="0 0 75 75" fill="none" xmlns="http://www.w3.org/2000/svg"><path d="M63.1351 49.5684C60.4047 49.5684 58.1833 51.7897 58.1833 54.5203C58.1833 57.2508 60.4047 59.4721 63.1351 59.4721C65.8656 59.4721 68.0869 57.2508 68.0869 54.5203C68.0869 51.7899 65.8656 49.5684 63.1351 49.5684ZM63.1351 57.0197C61.7569 57.0197 60.6357 55.8985 60.6357 54.5203C60.6357 53.1421 61.7569 52.0207 63.1351 52.0207C64.5133 52.0207 65.6346 53.1419 65.6346 54.5203C65.6346 55.8984 64.5133 57.0197 63.1351 57.0197Z" fill="#186AA5"/><path d="M74.7152 44.8787C71.8392 41.4309 67.6184 39.4535 63.1351 39.4535C62.3838 39.4535 61.6457 39.5095 60.9237 39.6161C60.426 36.3887 57.3904 32.117 54.4485 28.6224V18.2353C54.4485 17.8526 54.2697 17.4917 53.9653 17.2597C53.6605 17.0276 53.2645 16.9516 52.8964 17.0533L50.8979 17.6045C49.8311 17.8988 48.8987 18.4799 48.1759 19.2497L47.1262 14.4211C47.0036 13.8574 46.5047 13.4553 45.928 13.4553H43.7874V11.689C43.7874 11.0118 43.2385 10.4628 42.5612 10.4628C41.8839 10.4628 41.335 11.0118 41.335 11.689V17.8612C41.335 18.5384 41.8839 19.0874 42.5612 19.0874C43.2385 19.0874 43.7874 18.5384 43.7874 17.8612V15.9077H44.9397L46.45 22.8552C45.8037 23.5376 45.3667 24.3832 45.1828 25.3144L41.6542 29.1933C41.1985 29.6943 41.2352 30.4699 41.7361 30.9255C41.9712 31.1394 42.2664 31.2446 42.5609 31.2446C42.8941 31.2446 43.2263 31.1096 43.4683 30.8436L45.5989 28.5016C45.7535 28.8136 45.9412 29.1121 46.1626 29.3918C47.5514 31.1467 49.4729 33.831 50.7401 36.6543C52.107 39.6997 52.4301 42.2306 51.7003 44.177C50.6348 47.0178 47.5171 49.2035 43.3602 50.0235C38.9229 50.8993 34.5278 49.9657 32.4247 47.7008C31.4982 46.7031 31.0833 45.7126 31.1562 44.673C31.2858 42.8243 32.9291 40.6052 36.0399 38.0775C36.0437 38.0744 36.2947 37.7934 36.2979 37.7885C37.2584 36.4057 37.3791 34.6246 36.6069 33.1243C35.8256 31.606 34.2793 30.6628 32.5717 30.6628H14.8798C11.4958 30.6628 8.71268 33.2775 8.44031 36.5925C7.73534 37.3094 6.09047 39.0643 4.43138 41.424C1.49086 45.6059 0 49.5087 0 53.0239C0 53.7011 0.548834 54.2501 1.22617 54.2501H3.84462H5.42229C5.41984 54.3401 5.41657 54.4301 5.41657 54.5201C5.41657 60.0435 9.91008 64.537 15.4334 64.537C20.0809 64.537 23.9988 61.3552 25.1244 57.0555H53.4441C54.5698 61.355 58.4875 64.537 63.1351 64.537C68.6584 64.537 73.1521 60.0435 73.1521 54.5201C73.1521 52.4961 72.5467 50.6118 71.5103 49.0347L74.5378 46.6231C74.7959 46.4174 74.9603 46.1165 74.9938 45.7883C75.027 45.4599 74.9266 45.1319 74.7152 44.8787ZM25.4578 33.115H32.5717C33.3684 33.115 34.0617 33.5379 34.4263 34.2463C34.6997 34.7773 34.735 35.3654 34.5406 35.8997H25.4578V33.115ZM14.8798 33.115H23.0054V35.8997H11.0604C11.5798 34.286 13.0957 33.115 14.8798 33.115ZM15.4332 62.0848C11.2621 62.0848 7.86875 58.6914 7.86875 54.5203C7.86875 54.4301 7.87136 54.34 7.87447 54.2502H10.4888C10.4841 54.3398 10.4813 54.4299 10.4813 54.5203C10.4813 57.2509 12.7026 59.4722 15.4331 59.4722C18.1635 59.4722 20.385 57.2509 20.385 54.5203C20.385 54.4299 20.3822 54.3398 20.3775 54.2502H22.992C22.9951 54.3401 22.9977 54.4301 22.9977 54.5203C22.9979 58.6913 19.6044 62.0848 15.4332 62.0848ZM12.9338 54.5203C12.9338 54.4294 12.9392 54.3393 12.9487 54.2502H17.918C17.9276 54.3393 17.9328 54.4294 17.9328 54.5203C17.9328 55.8985 16.8116 57.0199 15.4332 57.0199C14.0552 57.0199 12.9338 55.8985 12.9338 54.5203ZM23.4802 51.7977H5.4648C5.87025 50.6255 6.62034 48.9038 7.91354 47.2447C10.8737 43.4465 15.2034 41.7191 20.7789 42.1115C23.2502 42.2853 24.8028 42.9364 25.394 44.047C26.1665 45.499 25.5225 48.1048 23.4802 51.7977ZM48.0702 54.6034H25.4481C25.4483 54.5756 25.4502 54.5481 25.4502 54.5203C25.4502 54.148 25.4277 53.7771 25.3871 53.4109C27.2856 50.0794 29.1762 45.9343 27.5586 42.8951C26.5443 40.9889 24.321 39.9022 20.9508 39.6653C12.871 39.097 8.31328 42.701 5.91194 45.8243C4.1353 48.1347 3.26668 50.4998 2.88886 51.798H2.52542C3.22369 45.8152 8.72118 39.8213 10.1514 38.3523H32.0804C29.9547 40.5233 28.8467 42.5508 28.7099 44.5017C28.5886 46.2309 29.2337 47.8687 30.6275 49.3697C33.3285 52.2785 38.5127 53.4795 43.8346 52.4296C45.5599 52.0892 47.1422 51.5368 48.531 50.8096C48.2291 51.9972 48.068 53.2404 48.068 54.5205C48.0682 54.5479 48.07 54.5756 48.0702 54.6034ZM51.5499 19.9686L51.996 19.8455V25.8433C50.7352 24.4757 49.665 23.3991 49.0609 22.8042C49.2512 21.4658 50.2199 20.3355 51.5499 19.9686ZM48.0852 27.8697C47.6593 27.3317 47.4716 26.6594 47.557 25.9768C47.5977 25.6499 47.6984 25.3405 47.8521 25.0606C51.4111 28.643 58.17 36.2044 58.5266 40.1753C57.0869 40.6389 55.7412 41.3135 54.5259 42.1628C54.595 38.9672 53.1952 34.3264 48.0852 27.8697ZM63.1351 62.0848C58.964 62.0848 55.5704 58.6914 55.5704 54.5203C55.5704 50.3492 58.964 46.9558 63.1351 46.9558C67.3062 46.9558 70.6997 50.3492 70.6997 54.5203C70.6997 58.6914 67.3062 62.0848 63.1351 62.0848ZM69.9238 47.1631C68.1375 45.5135 65.7524 44.5033 63.1351 44.5033C57.6117 44.5033 53.1181 48.9968 53.1181 54.5201C53.1181 54.5479 53.1199 54.5754 53.1202 54.6032H50.5223C50.5222 54.5754 50.5204 54.5479 50.5204 54.5201C50.5204 47.5645 56.1792 41.9056 63.1349 41.9056C66.4676 41.9056 69.6275 43.2111 71.9803 45.5248L69.9238 47.1631Z" fill="#186AA5"/></svg>
