<svg width="90" height="90" viewBox="0 0 90 90" fill="none" xmlns="http://www.w3.org/2000/svg"><path d="M71.277 35.4993C68.6818 35.4993 66.1792 36.0554 63.862 36.9823L60.7106 30.8649V21.1326C60.7106 20.5765 60.3399 20.0204 59.7837 19.835L52.3687 17.0544C51.6272 16.7763 50.8857 17.147 50.6076 17.8885C50.3296 18.6301 50.7003 19.3716 51.4418 19.6496L58.0227 22.0595V29.938H30.8651V27.25H34.2019C34.9434 27.25 35.5922 26.6012 35.5922 25.8597C35.5922 25.1182 34.9434 24.4694 34.2019 24.4694H25.5819C24.8404 24.4694 24.1916 25.1182 24.1916 25.8597C24.1916 26.6012 24.8404 27.25 25.5819 27.25H28.0844V31.0502L25.3965 36.8896C23.3574 36.0554 21.0402 35.5919 18.723 35.5919C8.4346 35.5919 0 43.9339 0 54.3149C0 64.696 8.34192 73.0379 18.723 73.0379C28.5479 73.0379 36.6117 65.3448 37.3532 55.7052H43.378C43.8414 55.7052 44.2122 55.5199 44.4902 55.1491L59.0422 34.1089L61.3594 38.4653C56.0762 41.6167 52.5541 47.5487 52.5541 54.2222C52.5541 64.5106 60.896 72.9452 71.277 72.9452C81.6581 72.9452 90 64.6033 90 54.2222C90 43.8412 81.6581 35.4993 71.277 35.4993ZM18.723 70.1646C9.91761 70.1646 2.78064 63.0276 2.78064 54.2222C2.78064 45.4169 9.91761 38.2799 18.723 38.2799C20.6694 38.2799 22.5232 38.6507 24.1916 39.2995L17.4253 53.6661C17.4253 53.6661 17.4253 53.6661 17.4253 53.7588C17.3326 53.9442 17.3326 54.0368 17.3326 54.2222C17.3326 54.2222 17.3326 54.2222 17.3326 54.3149C17.3326 54.5003 17.3326 54.593 17.4253 54.7784V54.871C17.4253 54.9637 17.4253 54.9637 17.518 55.0564C17.518 55.1491 17.6107 55.1491 17.7034 55.2418C17.7034 55.2418 17.7034 55.2418 17.7034 55.3345C17.7961 55.4272 17.9815 55.5199 18.0742 55.6125H18.1668C18.3522 55.7052 18.4449 55.7052 18.6303 55.7052H34.4799C33.8311 63.7691 27.0649 70.1646 18.723 70.1646ZM20.8548 52.8319L26.6941 40.5044C31.0505 43.007 34.1092 47.5487 34.5726 52.8319H20.8548ZM42.6365 52.8319H37.2606C36.7971 46.4364 33.0896 40.9678 27.8064 37.9091L30.309 32.6259H56.5396L42.6365 52.8319ZM71.1843 70.1646C62.379 70.1646 55.242 63.0276 55.242 54.2222C55.242 48.5683 58.208 43.6558 62.6571 40.7825L69.9794 54.871C70.2575 55.3345 70.7209 55.6125 71.1843 55.6125C71.3697 55.6125 71.6478 55.5199 71.8332 55.4272C72.482 55.0564 72.76 54.2222 72.3893 53.5734L65.0669 39.4848C67.0134 38.7433 69.0525 38.2799 71.1843 38.2799C79.9897 38.2799 87.1267 45.4169 87.1267 54.2222C87.1267 63.0276 79.9897 70.1646 71.1843 70.1646Z" fill="#186AA5"/></svg>
