<svg width="113" height="113" viewBox="0 0 113 113" fill="none" xmlns="http://www.w3.org/2000/svg"><path d="M113 33.5469C113 30.8695 110.822 28.6914 108.145 28.6914H4.85547C2.17812 28.6914 0 30.8695 0 33.5469V79.0117H7.1958C7.8109 82.0303 10.4863 84.3086 13.6836 84.3086C16.8811 84.3086 19.5563 82.0303 20.1714 79.0117H23.0862C23.7013 82.0303 26.3767 84.3086 29.574 84.3086C32.7715 84.3086 35.4467 82.0303 36.0618 79.0117H90.18C90.7951 82.0303 93.4702 84.3086 96.6677 84.3086C99.8653 84.3086 102.54 82.0303 103.156 79.0117H113V33.5469ZM4.85547 31.3398H108.145C109.361 31.3398 110.352 32.3299 110.352 33.5469V33.9883H2.64844V33.5469C2.64844 32.3299 3.63851 31.3398 4.85547 31.3398ZM96.2266 57.8242H110.352V65.7695H96.668C96.4245 65.7695 96.2266 65.5716 96.2266 65.3281V57.8242ZM96.2266 55.1758V36.6367H110.352V55.1758H96.2266ZM45.0234 71.9492H79.4531V76.3633H45.0234V71.9492ZM79.4531 69.3008H45.0234V57.8242H79.4531V69.3008ZM74.1562 55.1758H67.9766V41.9336H73.7148C73.9583 41.9336 74.1562 42.1318 74.1562 42.375V55.1758ZM65.3281 55.1758H59.1484V41.9336H65.3281V55.1758ZM56.5 55.1758H50.3203V42.375C50.3203 42.1318 50.5183 41.9336 50.7617 41.9336H56.5V55.1758ZM76.8047 55.1758V42.375C76.8047 40.6712 75.4187 39.2852 73.7148 39.2852H50.7617C49.0579 39.2852 47.6719 40.6712 47.6719 42.375V55.1758H45.0234V36.6367H79.4531V55.1758H76.8047ZM28.25 69.3008H2.64844V57.8242H28.25V69.3008ZM22.9531 55.1758H16.7734V41.9336H22.5117C22.7552 41.9336 22.9531 42.1318 22.9531 42.375V55.1758ZM14.125 55.1758H7.94531V42.375C7.94531 42.1318 8.14328 41.9336 8.38672 41.9336H14.125V55.1758ZM25.6016 55.1758V42.375C25.6016 40.6712 24.2155 39.2852 22.5117 39.2852H8.38672C6.68289 39.2852 5.29688 40.6712 5.29688 42.375V55.1758H2.64844V36.6367H28.25V55.1758H25.6016ZM30.8984 36.6367H35.3125V55.1758H30.8984V36.6367ZM37.9609 36.6367H42.375V55.1758H37.9609V36.6367ZM82.1016 36.6367H86.5156V55.1758H82.1016V36.6367ZM89.1641 36.6367H93.5781V55.1758H89.1641V36.6367ZM7.1958 76.3633H2.64844V71.9492H10.387C8.76942 72.8821 7.58005 74.4776 7.1958 76.3633ZM13.6836 81.6602C11.4931 81.6602 9.71094 79.878 9.71094 77.6875C9.71094 75.497 11.4931 73.7148 13.6836 73.7148C15.8741 73.7148 17.6562 75.497 17.6562 77.6875C17.6562 79.878 15.8741 81.6602 13.6836 81.6602ZM23.0864 76.3633H20.1714C19.7871 74.4776 18.5978 72.8821 16.9802 71.9492H26.2774C24.66 72.8821 23.4707 74.4776 23.0864 76.3633ZM29.5742 81.6602C27.3837 81.6602 25.6016 79.878 25.6016 77.6875C25.6016 75.497 27.3837 73.7148 29.5742 73.7148C31.7647 73.7148 33.5469 75.497 33.5469 77.6875C33.5469 79.878 31.7647 81.6602 29.5742 81.6602ZM30.8984 71.1995V57.8242H42.375V76.3633H36.062C35.5341 73.7729 33.4888 71.7276 30.8984 71.1995ZM96.668 81.6602C94.4775 81.6602 92.6953 79.878 92.6953 77.6875C92.6953 75.497 94.4775 73.7148 96.668 73.7148C98.8584 73.7148 100.641 75.497 100.641 77.6875C100.641 79.878 98.8584 81.6602 96.668 81.6602ZM103.156 76.3633C102.541 73.3447 99.8655 71.0664 96.668 71.0664C93.4704 71.0664 90.7953 73.3447 90.1802 76.3633H82.1016V57.8242H93.5781V65.3281C93.5781 67.032 94.9641 68.418 96.668 68.418H110.352V71.0664H106.379V73.7148H110.352V76.3633H103.156Z" fill="#2673AA"/></svg>
