<svg width="65" height="65" viewBox="0 0 65 65" fill="none" xmlns="http://www.w3.org/2000/svg"><path d="M60.2723 16.5374C59.0708 15.468 48.0553 6.09375 31.4844 6.09375C15.2191 6.09375 4.30422 10.4823 4.20469 10.5229L1.01562 11.7945V28.602L3.09867 34.8522C4.30523 38.4709 8.12398 39.2265 9.96125 39.5901C17.0168 40.9703 23.725 41.6406 30.4688 41.6406C31.3016 41.6406 32.1425 41.5949 32.9763 41.5218L35.6139 44.1594L36.6295 50.2531L47.3139 60.9375H47.7344C52.7739 60.9375 56.875 56.8364 56.875 51.7969V51.3764L46.1236 40.625H41.0079L40.4137 40.0298C51.7959 36.4264 61.357 27.3955 63.898 20.672L64.1438 20.023L60.2723 16.5374ZM31.4844 8.125C47.577 8.125 58.4665 17.6485 58.9174 18.0507L61.4402 20.3216L58.9408 22.5702C57.847 23.5412 47.8959 31.9891 32.8778 32.4787L30.8628 30.4596C31.073 30.4606 31.2721 30.4688 31.4844 30.4688C46.931 30.4688 57.1279 21.451 57.5545 21.0671L58.3934 20.3125L57.5545 19.5579C57.1279 19.174 46.931 10.1562 31.4844 10.1562C17.9938 10.1562 8.55562 13.2539 6.25727 14.0877L4.34484 12.6537L4.96438 12.4069C5.06898 12.3632 15.6142 8.125 31.4844 8.125ZM5.07812 15.7422V24.8828L3.04688 26.4062V14.2188L5.07812 15.7422ZM6.2593 26.5363C7.91273 27.1334 13.3138 28.9118 21.3241 29.8695L23.7504 32.2959C13.4743 31.3889 6.87375 29.2703 4.05641 28.1887L6.2593 26.5363ZM55.2612 20.3125C52.9527 22.0787 46.5126 26.4327 37.5781 27.9226V12.7024C46.5116 14.1923 52.9527 18.5463 55.2612 20.3125ZM35.5469 28.2039C34.2367 28.3502 32.8839 28.4375 31.4844 28.4375V12.1875C32.8839 12.1875 34.2367 12.2748 35.5469 12.4211V28.2039ZM29.4531 28.404C29.2378 28.3989 29.0144 28.3989 28.8021 28.3938L23.3594 22.9399V12.5877C25.2687 12.4018 27.301 12.2687 29.4531 12.2159V28.404ZM21.3281 22.488C20.6345 22.6677 19.9936 23.0141 19.4726 23.5351C18.7048 24.3029 18.2812 25.3226 18.2812 26.4062V26.8267L18.9536 27.4991C18.3727 27.4107 17.812 27.3173 17.2656 27.2228V13.4062C18.526 13.1869 19.887 12.9858 21.3281 12.8101V22.488ZM15.2344 26.842C11.1546 26.0193 8.30883 25.1022 7.10938 24.6817V15.9433C8.3068 15.5228 11.1475 14.6077 15.2344 13.7861V26.842ZM20.3491 26.0223C20.4252 25.6273 20.6172 25.2637 20.9087 24.9712C21.2012 24.6797 21.5648 24.4867 21.9598 24.4116L41.8498 44.3016L43.419 46.9178L40.1578 45.8311L20.3491 26.0223ZM30.4688 39.6094C23.857 39.6094 17.2768 38.9513 10.3533 37.5974C8.17883 37.1678 5.79414 36.5158 5.02633 34.2103L3.70094 30.2341C7.06164 31.4986 14.4361 33.7401 25.9543 34.5008L31.0487 39.5952C30.8557 39.5982 30.6617 39.6094 30.4688 39.6094ZM45.2827 42.6562L54.8326 52.2062C54.6274 55.8015 51.739 58.6899 48.1437 58.8951L38.5267 49.2781L38.0859 46.6314L39.062 47.6074L47.9883 50.5832L43.5287 43.1509L43.0351 42.6562H45.2827ZM38.7877 38.3998L34.7984 34.4023C46.6527 33.5065 55.252 27.9906 58.7123 25.3673C54.4426 30.6465 47.0884 36.0516 38.7877 38.3998Z" fill="#186AA5"/></svg>
