<svg width="75" height="75" viewBox="0 0 75 75" fill="none" xmlns="http://www.w3.org/2000/svg">
<g clip-path="url(#clip0)">
<path d="M8.94069 42.639C8.29504 42.9419 8.01017 43.7045 8.29791 44.3564L11.2471 50.6873C11.392 51.0026 11.6563 51.248 11.9814 51.3691C12.1238 51.4208 12.2749 51.4475 12.4268 51.4475C12.6168 51.4492 12.8044 51.4085 12.9772 51.3301L35.2596 40.9224L33.2413 62.0247C33.2023 62.4401 33.3624 62.8485 33.6731 63.126C34.65 63.9346 35.8675 64.3952 37.1342 64.4366C37.4835 64.4362 37.8307 64.3923 38.1694 64.3061C39.9783 63.8341 41.3808 62.2222 42.3376 59.4692L51.1063 33.5041L68.473 25.4032C73.5849 23.018 76.2193 18.1815 74.4502 14.4065C73.4462 12.4334 71.5232 11.0912 69.3251 10.8281C66.8829 10.4595 64.3869 10.8437 62.1687 11.9298L42.1274 21.3273L20.5798 12.8993C17.8662 11.8772 15.717 11.9035 14.2098 12.9917C12.9452 14.0293 12.2256 15.5891 12.2564 17.2248C12.2695 17.6397 12.4785 18.0235 12.82 18.2608L27.3294 28.235L19.02 32.1673L5.08645 28.6278C4.51549 28.4875 3.92114 28.7448 3.63177 29.2571L0.158838 35.5088C-0.0213557 35.8401 -0.0496777 36.2333 0.0812601 36.5871C0.211377 36.9413 0.488029 37.2217 0.840617 37.3571L11.156 41.6173L8.94069 42.639ZM14.9429 16.5697C15.0201 16.0155 15.3004 15.5111 15.7298 15.154C16.4772 14.6163 17.8404 14.6951 19.662 15.3764L38.8511 22.8608L30.0951 26.9503L14.9429 16.5697ZM3.14701 35.4961L5.42754 31.4461L18.8361 34.7749C19.1251 34.848 19.4301 34.8205 19.7018 34.6969L63.2831 14.3413C65.0157 13.4867 66.967 13.1755 68.8798 13.4497C70.2212 13.5733 71.416 14.3474 72.0781 15.5205C73.1782 17.8803 71.0158 21.3273 67.3586 23.0312L52.2593 30.1096L53.1771 27.3956C53.409 26.6974 53.0302 25.943 52.332 25.7115C51.6329 25.48 50.8789 25.8588 50.6474 26.557L39.8601 58.6561C39.2177 60.4785 38.4181 61.5667 37.527 61.8019C36.9749 61.9082 36.4035 61.7998 35.9278 61.501L38.5494 33.9753C38.618 33.2517 38.0873 32.6093 37.3628 32.5408C36.6391 32.4714 35.9968 33.003 35.9278 33.7266L35.5219 37.9338L13.0293 48.4195L11.1822 44.4873L14.8776 42.7576C15.3534 42.5479 15.66 42.0775 15.66 41.5582C15.66 41.0386 15.3534 40.5682 14.8776 40.3589L3.14701 35.4961Z" fill="#186AA5"/>
</g>
<rect x="0.5" y="0.5" width="74" height="74" stroke="#186AA5"/>
<defs>
<clipPath id="clip0">
</clipPath>
</defs>
</svg>
