<svg width="55" height="55" viewBox="0 0 55 55" fill="none" xmlns="http://www.w3.org/2000/svg">
<g clip-path="url(#clip0)">
<path d="M32.182 38.4979C32.182 35.9665 30.1298 33.9144 27.5984 33.9144C25.0666 33.9144 23.0144 35.9665 23.0144 38.4979C23.0144 41.0298 25.0666 43.0819 27.5984 43.0819C30.1286 43.079 32.179 41.0285 32.182 38.4979ZM24.8479 38.4979C24.8479 36.9792 26.0792 35.7479 27.5984 35.7479C29.1172 35.7479 30.3485 36.9792 30.3485 38.4979C30.3485 40.0171 29.1172 41.2484 27.5984 41.2484C26.0792 41.2484 24.8479 40.0171 24.8479 38.4979Z" fill="#186AA5"/>
<path d="M27.5981 18.3293C29.6234 18.3293 31.2651 16.6871 31.2651 14.6618C31.2651 12.6369 29.6234 10.9948 27.5981 10.9948C25.5728 10.9948 23.9307 12.6369 23.9307 14.6618C23.9307 16.6871 25.5728 18.3293 27.5981 18.3293ZM27.5981 12.8283C28.6108 12.8283 29.4316 13.6496 29.4316 14.6618C29.4316 15.6745 28.6108 16.4958 27.5981 16.4958C26.5855 16.4958 25.7646 15.6745 25.7646 14.6618C25.7646 13.6496 26.5855 12.8283 27.5981 12.8283Z" fill="#186AA5"/>
<path d="M1.9983 11.1014C2.14014 11.4438 2.47462 11.6671 2.84518 11.6671C2.96563 11.6667 3.08481 11.6432 3.19644 11.5974L4.24896 11.161L5.11599 13.2568L4.06347 13.6928C3.65933 13.8603 3.42978 14.29 3.51497 14.7189C3.60058 15.1482 3.97744 15.4571 4.41473 15.4567C4.53517 15.4567 4.65436 15.4328 4.76599 15.387L5.81725 14.951L6.6847 17.0455L5.6284 17.4828C5.22552 17.6511 4.9968 18.0804 5.08242 18.5085C5.16803 18.937 5.54363 19.2454 5.9805 19.2458C6.10136 19.2463 6.22139 19.2223 6.3326 19.1753L7.38596 18.7397L9.11246 22.9129C8.97816 23.0627 8.86905 23.2335 8.78974 23.4181C8.60215 23.8672 8.60215 24.3725 8.78974 24.8215L10.4399 28.8104C10.6262 29.2603 10.9837 29.6174 11.4336 29.8034C11.8835 29.9893 12.3888 29.9884 12.8382 29.8017L15.877 28.5427L16.5959 30.2847V48.5825C15.0772 48.5825 13.8454 49.8138 13.8454 51.333V52.2496C13.8454 53.7687 15.0772 55 16.5959 55H38.5994C40.1181 55 41.3499 53.7687 41.3499 52.2496V51.333C41.3499 49.8138 40.1181 48.5825 38.5994 48.5825V41.0797C39.6976 40.697 40.4337 39.6613 40.4337 38.498C40.4337 37.3351 39.6976 36.2993 38.5994 35.9166V30.4068L39.3711 28.5418L42.4141 29.8017C42.6357 29.8944 42.8732 29.9418 43.1137 29.9418C43.8561 29.9427 44.5255 29.4957 44.8096 28.8096L46.4597 24.819C46.7241 24.1748 46.6003 23.4362 46.1408 22.9129L47.8681 18.7406L48.9185 19.1753C49.0301 19.2223 49.1497 19.2463 49.2706 19.2458C49.7071 19.245 50.0827 18.9365 50.1679 18.5081C50.2535 18.08 50.0248 17.6511 49.6219 17.4828L48.5694 17.0455L49.4364 14.951L50.4872 15.3862C50.5984 15.4319 50.718 15.4558 50.8385 15.4558C51.2758 15.4558 51.6518 15.1466 51.737 14.7177C51.8222 14.2888 51.5926 13.8594 51.1885 13.692L50.1381 13.2568L51.0051 11.161L52.0576 11.5962C52.1688 11.6419 52.2876 11.6658 52.4076 11.6658C52.8453 11.6663 53.2222 11.3574 53.3074 10.9281C53.393 10.4992 53.163 10.0694 52.7589 9.902L51.69 9.45925L52.309 7.87795C53.15 5.83964 52.1806 3.50504 50.1435 2.66152L44.4604 0.305518C43.4792 -0.100298 42.3772 -0.0990394 41.3969 0.308875C40.4165 0.71637 39.6389 1.49737 39.2347 2.47896L38.6241 4.05061L37.6002 3.62423C37.1322 3.43034 36.5959 3.65277 36.4024 4.12069C36.2085 4.5882 36.431 5.12453 36.8989 5.31842L37.9455 5.75193L37.0793 7.84858L36.0323 7.41422C35.7297 7.28874 35.3835 7.33449 35.1233 7.53383C34.8635 7.73317 34.7301 8.05631 34.7729 8.38113C34.8157 8.70553 35.0284 8.98293 35.331 9.10841L36.3798 9.54276L35.8791 10.7518C34.378 7.55229 31.1675 5.50433 27.6331 5.49048C24.0991 5.47705 20.8731 7.50067 19.3472 10.6889L18.873 9.54276L19.923 9.10841C20.2256 8.98293 20.4384 8.70553 20.4808 8.38071C20.5236 8.05589 20.3897 7.73275 20.1299 7.53341C19.8697 7.33407 19.5231 7.28874 19.2205 7.41422L18.1726 7.84858L17.3064 5.75193L18.3526 5.31842C18.8201 5.12453 19.0422 4.58778 18.8483 4.12027C18.6544 3.65235 18.118 3.43034 17.6501 3.62423L16.6245 4.04935L16.0084 2.45966C15.1619 0.426801 12.8294 -0.537589 10.7945 0.304259L5.11053 2.66068C4.13271 3.06062 3.35424 3.83322 2.94632 4.8081C2.53883 5.78257 2.53505 6.87957 2.93709 7.85697L3.56239 9.45925L2.4914 9.90326C2.02474 10.098 1.80399 10.6343 1.9983 11.1014V11.1014ZM34.9873 20.0709L36.2451 20.59L34.5949 24.5798L31.5532 23.3199L31.7576 22.8277C33.0338 22.1726 34.14 21.2288 34.9873 20.0709V20.0709ZM40.4639 21.1133L38.0299 26.9954L37.17 29.0736L35.044 28.2754L35.9332 26.1309L35.9379 26.1237V26.1216L38.2913 20.4461L38.374 20.2459C38.57 19.7805 39.1059 19.561 39.5722 19.7557L39.9725 19.9198C40.4337 20.1154 40.6528 20.6446 40.4639 21.1087V21.1133ZM18.4303 40.3315H20.2638V43.9989H18.4303V40.3315ZM14.8724 21.3152V21.3022L14.7909 21.1062C14.6004 20.6416 14.8186 20.1103 15.2803 19.9144L15.6802 19.7457C16.1477 19.553 16.6832 19.7708 16.8838 20.235L16.9673 20.436V20.4377L19.325 26.1216L20.2071 28.2506L18.0736 29.0517L17.2267 27.0054C17.2267 27 17.2267 26.9937 17.2267 26.9882C17.2267 26.9824 17.2191 26.9798 17.2166 26.9744L14.8724 21.3152ZM18.4303 30.8815L21.7658 29.6284L27.2827 27.5548C27.4795 27.483 27.6956 27.483 27.8925 27.5548L36.7659 30.8815V32.5903L28.5379 29.4962C27.9281 29.2733 27.2592 29.2733 26.6494 29.4962L18.4303 32.5903V30.8815ZM29.5015 24.1618C29.5942 24.3863 29.7726 24.5651 29.9975 24.6587L33.8882 26.2694L33.3242 27.6291L28.535 25.8291C27.9273 25.6075 27.2609 25.6075 26.6528 25.8291L21.9261 27.606L21.3705 26.2664L25.2532 24.6549C25.6473 24.4875 25.8701 24.0665 25.7866 23.6464C27.0011 23.892 28.2534 23.8882 29.4666 23.6355C29.4251 23.8105 29.4372 23.9935 29.5015 24.1618V24.1618ZM23.5183 22.86L23.7017 23.3183L20.6637 24.5789L19.0136 20.5879L20.2218 20.0877C21.0863 21.259 22.2161 22.2091 23.5183 22.86ZM18.4559 14.1561C18.4471 14.3248 18.4303 14.4915 18.4303 14.6618C18.4315 15.9846 18.7211 17.2915 19.2793 18.4904L18.2167 18.9307C17.4613 17.9419 16.1381 17.581 14.9852 18.0485L14.579 18.2147C13.4296 18.694 12.7472 19.8879 12.918 21.1217L10.7303 22.0274L9.0793 18.0385L18.4559 14.1561ZM12.1378 28.1083L10.4873 24.1177L13.5294 22.8579L15.1796 26.8485L12.1378 28.1083ZM39.5163 51.333V52.2496C39.5163 52.7561 39.1055 53.1665 38.5994 53.1665H16.5968C16.0906 53.1665 15.6802 52.7561 15.6802 52.2496V51.333C15.6802 50.8265 16.0906 50.416 16.5968 50.416H38.5994C39.1055 50.416 39.5163 50.8265 39.5163 51.333V51.333ZM18.4303 48.5825V45.8325H20.2638C21.2764 45.8325 22.0973 45.0116 22.0973 43.9989V40.3315C22.0973 39.3188 21.2764 38.498 20.2638 38.498H18.4303V34.5485L27.2844 31.2197C27.4841 31.1471 27.7028 31.1471 27.9025 31.2197L36.7659 34.5485V35.9166C36.0449 36.1663 35.4615 36.7064 35.1573 37.406C34.8526 38.1056 34.8551 38.9004 35.1632 39.5983L29.0868 44.9155H26.6813C26.1752 44.9155 25.7648 45.3259 25.7648 45.8325C25.7648 46.3386 26.1752 46.749 26.6813 46.749H29.0868C29.5313 46.7486 29.9606 46.5874 30.295 46.2953L36.423 40.9287C36.5338 40.9866 36.6484 41.0369 36.7659 41.0797V48.5825H18.4303ZM37.6824 39.4149C37.1763 39.4149 36.7659 39.0045 36.7659 38.498C36.7659 37.9919 37.1763 37.5814 37.6824 37.5814C38.1889 37.5814 38.5994 37.9919 38.5994 38.498C38.5994 39.0045 38.1889 39.4149 37.6824 39.4149ZM43.1162 28.1083L40.0728 26.8477L41.7229 22.8571L44.7655 24.1177L43.1162 28.1083ZM44.5234 22.0274L42.3336 21.1196C42.5027 19.8858 41.8199 18.6927 40.6704 18.2135L40.2688 18.0494C39.1172 17.5798 37.794 17.9407 37.0407 18.9307L35.9269 18.472C36.4788 17.2776 36.765 15.9779 36.7659 14.6618C36.7659 14.4789 36.7495 14.3081 36.7394 14.1322L46.1747 18.0393L44.5234 22.0274ZM40.9398 3.16302C41.1589 2.63466 41.579 2.21541 42.1074 1.99677C42.6357 1.77854 43.2291 1.77896 43.7571 1.99887L49.441 4.3557C49.9723 4.57603 50.3945 4.99863 50.6135 5.53077C50.8326 6.06248 50.8309 6.65967 50.6089 7.19054L49.9975 8.75883L40.3229 4.75187L40.9398 3.16302ZM39.6397 6.45403L49.3117 10.4597L48.4447 12.5534L38.7727 8.54732L39.6397 6.45403ZM47.7435 14.2468L46.8752 16.3418L37.204 12.3415L38.0723 10.244L47.7435 14.2468ZM27.5983 7.32777C31.6485 7.32777 34.9323 10.6117 34.9323 14.6618C34.9323 18.7124 31.6485 21.9963 27.5983 21.9963C23.5477 21.9963 20.2638 18.7124 20.2638 14.6618C20.2684 10.6133 23.5494 7.33239 27.5983 7.32777V7.32777ZM18.0501 12.3436L8.37804 16.3451L7.5106 14.2493L17.1818 10.244L18.0501 12.3436ZM16.4814 8.54984L6.80934 12.5534L5.94231 10.4576L15.6139 6.45151L16.4814 8.54984ZM4.64135 7.17376C4.41934 6.64498 4.41851 6.04947 4.63883 5.51986C4.85873 4.99024 5.28176 4.57057 5.81305 4.35487L11.497 1.99887C12.5881 1.54479 13.8417 2.05552 14.305 3.14287L14.9303 4.75187L5.25909 8.75799L4.64135 7.17376Z" fill="#186AA5"/>
</g>
<defs>
<clipPath id="clip0">
</clipPath>
</defs>
</svg>
