<svg width="63" height="63" viewBox="0 0 63 63" fill="none" xmlns="http://www.w3.org/2000/svg"><path d="M63.0001 46.8807V25.2628H29.2573V32.6556H31.7247V27.7311H60.5315V43.6974H45.1802V49.1529L48.1333 49.4208H55.989V48.272H48.9453V46.8807H63.0001Z" fill="#2673AA"/><path d="M18.6296 33.1548L7.44214 44.3431L11.153 44.3578L18.637 37.0463L18.6296 33.1548Z" fill="#2673AA"/><path d="M19.8302 31.9548L19.1284 32.6556H27.1592V29.5337H5.36506L5.32366 7.37783L40.7628 7.38152L40.7892 23.3446H43.6558V7.30267H46.186V3.52234H43.6558H2.37056H0V7.30267H2.37056V31.9548H19.8302Z" fill="#2673AA"/><path d="M32.2832 50.3116H31.6132H28.7727V51.3828H35.2797V51.8483H28.7727V52.8145H47.112V50.4819L43.7235 50.3116H32.2832Z" fill="#2673AA"/><path d="M15.1252 59.4777H27.2888V41.2296H15.1252V59.4777ZM21.4627 58.563C21.1399 58.563 20.8772 58.2988 20.8772 57.9748C20.8772 57.6507 21.1399 57.389 21.4627 57.389C21.7879 57.389 22.0494 57.6507 22.0494 57.9748C22.0494 58.2988 21.7879 58.563 21.4627 58.563ZM16.8827 42.9878H25.5293V56.4534H16.8827V42.9878Z" fill="#2673AA"/><path d="M28.7726 47.8265V49.5898H43.7271V34.0609H20.1748V39.9307H21.9392V35.8238H41.9615V47.8265H28.7726Z" fill="#2673AA"/></svg>
