<svg width="14" height="14" viewBox="0 0 14 14" fill="none">
<path d="M13.8768 13.286L10.4746 9.88381C11.3872 8.83459 11.9398 7.46563 11.9398 5.9694C11.9398 2.67583 9.26084 0 5.97038 0C2.67681 0 0.000976562 2.67894 0.000976562 5.9694C0.000976562 9.25987 2.67991 11.9388 5.97038 11.9388C7.46661 11.9388 8.83557 11.3863 9.88479 10.4736L13.287 13.8758C13.3677 13.9565 13.4764 14 13.5819 14C13.6875 14 13.7961 13.9596 13.8768 13.8758C14.0382 13.7144 14.0382 13.4475 13.8768 13.286ZM0.83601 5.9694C0.83601 3.13836 3.13934 0.838138 5.96727 0.838138C8.79832 0.838138 11.0985 3.14146 11.0985 5.9694C11.0985 8.79734 8.79832 11.1038 5.96727 11.1038C3.13934 11.1038 0.83601 8.80044 0.83601 5.9694Z" fill="#2C2727"/>
</svg>
